<svg viewBox="0 -16 512 512" xmlns="http://www.w3.org/2000/svg"><path fill="#333" d="m33.390625 261.320312h66.773437l33.386719-57.828124-33.386719-57.828126h-66.773437l-33.390625 57.828126zm0 0"/><path fill="#333" d="m285.6875 145.664062-33.089844 57.304688-.300781.523438.300781.523437 33.089844 57.304687h66.777344l33.386718-57.828124-33.386718-57.828126zm0 0"/><path fill="#333" d="m352.464844 291.324219h-66.777344l-33.089844 57.308593-.300781.523438.300781.523438 33.089844 57.304687h66.777344l33.386718-57.828125zm0 0"/><path fill="#333" d="m478.613281 218.492188h-66.777343l-33.386719 57.832031 33.386719 57.828125h66.777343l33.386719-57.828125zm0 0"/><path fill="#333" d="m126.148438 130.660156 33.390624 57.828125h66.773438l33.390625-57.828125-33.390625-57.828125h-66.773438zm0 0"/><path fill="#333" d="m252.296875 57.828125 33.390625 57.832031h66.777344l33.386718-57.832031-33.386718-57.828125h-66.777344zm0 0"/><path fill="#d2a241" d="m226.3125 334.152344 33.390625-57.828125-33.390625-57.832031h-66.773438l-33.390624 57.832031 33.390624 57.828125zm0 0"/><path fill="#333" d="m226.3125 364.15625h-66.773438l-33.390624 57.832031 33.390624 57.828125h66.773438l33.390625-57.828125zm0 0"/></svg>