<?xml version="1.0" encoding="utf-8"?>
<!-- Generator: Adobe Illustrator 18.0.0, SVG Export Plug-In . SVG Version: 6.00 Build 0)  -->
<!DOCTYPE svg PUBLIC "-//W3C//DTD SVG 1.1//EN" "http://www.w3.org/Graphics/SVG/1.1/DTD/svg11.dtd">
<svg version="1.1" xmlns="http://www.w3.org/2000/svg" xmlns:xlink="http://www.w3.org/1999/xlink" x="0px" y="0px" width="180.4px"
	 height="180.4px" viewBox="0 0 180.4 180.4" enable-background="new 0 0 180.4 180.4" xml:space="preserve">
<g id="sirkel">
</g>
<g id="Layer_3">
</g>
<g id="Layer_1">
</g>
<g id="Layer_4">
	<g>
		<path fill="#002776" d="M61.6,75.7h11.2c1.6,0,2.8-1.3,2.8-2.8V61.7c0-2.5-3.1-3.8-4.8-2L59.6,70.9C57.8,72.7,59.1,75.7,61.6,75.7
			z"/>
		<path fill="#002776" d="M122.1,107.9h-11.2c-1.6,0-2.8,1.3-2.8,2.8V122c0,2.5,3.1,3.8,4.8,2l11.2-11.2
			C125.9,111,124.6,107.9,122.1,107.9z"/>
		<path fill="#002776" d="M125.7,130.6L115,119.9c-1.1-1.1-1.1-2.9,0-4l0.9-0.9c1.1-1.1,2.9-1.1,4,0l10.7,10.7c1.1,1.1,1.1,2.9,0,4
			l-0.9,0.9C128.6,131.7,126.8,131.7,125.7,130.6z"/>
		<path fill="#002776" d="M63.7,68.7l-14-14c-1.1-1.1-1.1-2.9,0-4l0.9-0.9c1.1-1.1,2.9-1.1,4,0l14,14c1.1,1.1,1.1,2.9,0,4l-0.9,0.9
			C66.6,69.8,64.8,69.8,63.7,68.7z"/>
		<path fill="#002776" d="M75.7,118.8v-11.2c0-1.6-1.3-2.8-2.8-2.8H61.7c-2.5,0-3.8,3.1-2,4.8l11.2,11.2
			C72.7,122.6,75.7,121.3,75.7,118.8z"/>
		<path fill="#002776" d="M104.6,61.6v11.2c0,1.6,1.3,2.8,2.8,2.8h11.2c2.5,0,3.8-3.1,2-4.8l-11.2-11.2
			C107.7,57.8,104.6,59.1,104.6,61.6z"/>
		<path fill="#002776" d="M112.6,68.7l-0.9-0.9c-1.1-1.1-1.1-2.9,0-4l14-14c1.1-1.1,2.9-1.1,4,0l0.9,0.9c1.1,1.1,1.1,2.9,0,4l-14,14
			C115.5,69.8,113.7,69.8,112.6,68.7z"/>
		<path fill="#002776" d="M50.7,130.7l-0.9-0.9c-1.1-1.1-1.1-2.9,0-4l14-14c1.1-1.1,2.9-1.1,4,0l0.9,0.9c1.1,1.1,1.1,2.9,0,4l-14,14
			C53.6,131.8,51.8,131.8,50.7,130.7z"/>
	</g>
</g>
</svg>
