<?xml version="1.0" encoding="utf-8"?>
<!-- Generator: Adobe Illustrator 18.0.0, SVG Export Plug-In . SVG Version: 6.00 Build 0)  -->
<!DOCTYPE svg PUBLIC "-//W3C//DTD SVG 1.1//EN" "http://www.w3.org/Graphics/SVG/1.1/DTD/svg11.dtd">
<svg version="1.1" id="Layer_1" xmlns="http://www.w3.org/2000/svg" xmlns:xlink="http://www.w3.org/1999/xlink" x="0px" y="0px"
	 width="180.4px" height="180.4px" viewBox="0 0 180.4 180.4" enable-background="new 0 0 180.4 180.4" xml:space="preserve">
<path fill="#002776" d="M130.3,86.7H96.9v-6.5h26.9V70H56.3v10.2h26.9v6.5H49.8V69.2c0-3.1,2.5-5.7,5.7-5.7h69.2
	c3.1,0,5.7,2.5,5.7,5.7V86.7z"/>
<path fill="#002776" d="M120.9,130.7H59.3c-3.1,0-5.7-2.5-5.7-5.7V83.4h6.5v40.8h60V83.4h6.5V125
	C126.6,128.2,124.1,130.7,120.9,130.7z"/>
<g>
	<rect x="80" y="66.8" fill="#002776" width="6.5" height="60.7"/>
	<rect x="93.7" y="66.8" fill="#002776" width="6.5" height="60.7"/>
</g>
<path fill="#002776" d="M91.4,67.6c-0.2,0-0.4,0-0.7-0.1c-3.2-0.7-31.3-7.4-36.3-18.3c-1.2-2.7-1.1-5.4,0.3-8c1.5-2.8,4-4.4,7.1-4.4
	c5.1,0,11.9,4.4,20.7,13.3c5.6,5.6,10,11.2,11,12.4c0.5,0.5,0.8,1.3,0.8,2.1C94.5,66.2,93.1,67.6,91.4,67.6
	C91.5,67.6,91.4,67.6,91.4,67.6z M61.9,42.8c-0.7,0-1.3,0.2-1.8,1.2c-0.5,1-0.5,1.8-0.1,2.7c2.1,4.7,13.1,9.4,23,12.5
	C75.5,50.9,66.5,42.8,61.9,42.8z"/>
<path fill="#002776" d="M91.4,67.8c-0.4,0-0.8-0.1-1.2-0.3c-1.2-0.5-1.9-1.7-1.8-3c0.6-8.2,3.7-34.9,15.6-34.9c1,0,1.9,0.2,2.9,0.5
	c3.2,1.2,4.4,3.5,4.8,5.2C114,44.9,97,63.3,93.6,66.9C93,67.5,92.2,67.8,91.4,67.8z M104.1,35.7c-3.4,0-6.6,9.2-8.5,19.8
	c6.2-7.6,11-15.6,10.3-18.7c-0.1-0.3-0.1-0.6-1-0.9C104.6,35.8,104.3,35.7,104.1,35.7z"/>
<path fill="#002776" d="M90.9,67.8c-0.3,0-0.5,0-0.5,0l0.2-6l-0.1,3l0.1-3c0.2,0,21.1,0.4,29-13.9c0.7-1.3,2.2-1.8,3.5-1.2l0.3,0.1
	c1.6,0.6,2.2,2.5,1.4,4c-3.9,7-10.7,12.2-19.9,14.9C98.4,67.7,92.6,67.8,90.9,67.8z"/>
</svg>
