<?xml version="1.0" encoding="UTF-8" standalone="no"?>
<svg width="29px" height="19px" viewBox="0 0 29 19" version="1.1" xmlns="http://www.w3.org/2000/svg" xmlns:xlink="http://www.w3.org/1999/xlink" xmlns:sketch="http://www.bohemiancoding.com/sketch/ns">
    <!-- Generator: Sketch 3.0.4 (8053) - http://www.bohemiancoding.com/sketch -->
    <title>Fill 1 + Fill 2</title>
    <desc>Created with Sketch.</desc>
    <defs></defs>
    <g id="Page-1" stroke="none" stroke-width="1" fill="none" fill-rule="evenodd" sketch:type="MSPage">
        <g id="knapper" sketch:type="MSArtboardGroup" transform="translate(-322.000000, -1609.000000)" fill="#005AA4">
            <g id="Fill-1-+-Fill-2" sketch:type="MSLayerGroup" transform="translate(336.000000, 1618.062500) scale(1, -1) translate(-336.000000, -1618.062500) translate(322.000000, 1609.062500)">
                <path d="M25.2261344,17.8194105 C24.4408052,17.8194105 23.6539362,17.5128293 23.0518505,16.9012392 L12.1480939,5.80142859 C10.9439225,4.5735317 10.9408428,2.5831124 12.1419345,1.35364329 C13.3430261,0.122601973 15.2909505,0.121029761 16.4966617,1.34735445 L27.4019581,12.4471651 C28.6061295,13.6734898 28.6092092,15.6654813 27.4065777,16.8949504 C26.8060319,17.5112571 26.0160831,17.8194105 25.2261344,17.8194105" id="Fill-1" sketch:type="MSShapeGroup" transform="translate(19.774929, 9.124197) rotate(90.000000) translate(-19.774929, -9.124197) "></path>
                <path d="M3.45057451,17.8190186 C2.66216562,17.8190186 1.87221687,17.509293 1.27013117,16.8945584 C0.0690395054,15.6635171 0.0721192276,13.6730978 1.27629062,12.4467731 L12.1800472,1.34696253 C13.3857584,0.12063784 15.3336827,0.123782262 16.5347744,1.35482358 C17.7374059,2.58429269 17.7343262,4.57471199 16.5301548,5.80103667 L5.6248584,16.9008473 C5.02431256,17.5124374 4.23744354,17.8190186 3.45057451,17.8190186" id="Fill-2" sketch:type="MSShapeGroup" transform="translate(8.903126, 9.124197) rotate(90.000000) translate(-8.903126, -9.124197) "></path>
            </g>
        </g>
    </g>
</svg>