<?xml version="1.0" encoding="utf-8"?>
<!-- Generator: Adobe Illustrator 18.0.0, SVG Export Plug-In . SVG Version: 6.00 Build 0)  -->
<!DOCTYPE svg PUBLIC "-//W3C//DTD SVG 1.1//EN" "http://www.w3.org/Graphics/SVG/1.1/DTD/svg11.dtd">
<svg version="1.1" id="Layer_4" xmlns="http://www.w3.org/2000/svg" xmlns:xlink="http://www.w3.org/1999/xlink" x="0px" y="0px"
	 viewBox="0 0 180.4 180.4" enable-background="new 0 0 180.4 180.4" xml:space="preserve">
<g>
	<path fill="#002776" d="M91.1,82.9h-1.9c-2,0-3.3,1.2-3.3,3.3v24.1c0,2,1.2,3.3,3.3,3.3h1.9c2,0,3.2-1.2,3.2-3.3V86.2
		C94.3,84.1,93.1,82.9,91.1,82.9z"/>
	<g>
		<path fill="#002776" d="M91.4,65.7H89c-2,0-3.2,1.2-3.2,3.3v3.5c0,2,1.1,3.2,3.2,3.2h2.4c2,0,3.2-1.1,3.2-3.2V69
			C94.6,66.9,93.4,65.7,91.4,65.7z"/>
	</g>
</g>
<path fill="#002776" d="M90.2,140.2c-28.1,0-51-22.9-51-51c0-28.1,22.9-51,51-51s51,22.9,51,51C141.2,117.3,118.3,140.2,90.2,140.2z
	 M90.2,45.2c-24.3,0-44,19.7-44,44c0,24.3,19.7,44,44,44s44-19.7,44-44C134.2,64.9,114.4,45.2,90.2,45.2z"/>
</svg>
