<?xml version="1.0" encoding="utf-8"?>
<!-- Generator: Adobe Illustrator 18.0.0, SVG Export Plug-In . SVG Version: 6.00 Build 0)  -->
<!DOCTYPE svg PUBLIC "-//W3C//DTD SVG 1.1//EN" "http://www.w3.org/Graphics/SVG/1.1/DTD/svg11.dtd">
<svg version="1.1" id="Layer_1" xmlns="http://www.w3.org/2000/svg" xmlns:xlink="http://www.w3.org/1999/xlink" x="0px" y="0px"
	 width="180.4px" height="180.4px" viewBox="0 0 180.4 180.4" enable-background="new 0 0 180.4 180.4" xml:space="preserve">
<path fill="#fff" d="M133.4,57.8H54.8l-2.8-8.2c-0.8-2.3-2.9-3.8-5.4-3.8H34.2c-1.6,0-2.8,1.3-2.8,2.8v1.3c0,1.6,1.3,2.8,2.8,2.8
	h11.4l20.3,59c-3,2-5,5.5-5,9.4c0,6.2,5.1,11.3,11.3,11.3s11.3-5.1,11.3-11.3c0-1.5-0.3-2.9-0.8-4.2h22.7c-0.5,1.3-0.8,2.6-0.8,4.1
	c0,6.2,5.1,11.3,11.3,11.3s11.3-5.1,11.3-11.3s-5.1-11.3-11.3-11.3c-0.7,0-1.4,0.1-2.1,0.2H73.5c-0.3,0-0.5,0-0.8-0.1l-3-8.7h53.8
	c2.5,0,4.7-1.6,5.4-4l10-32C140,61.5,137.3,57.8,133.4,57.8z M72.2,125.9c-2.6,0-4.8-2.1-4.8-4.8c0-2.6,2.1-4.8,4.8-4.8
	s4.8,2.1,4.8,4.8C77,123.7,74.8,125.9,72.2,125.9z M120.6,121c0,2.6-2.1,4.8-4.8,4.8s-4.8-2.1-4.8-4.8s2.1-4.8,4.8-4.8
	S120.6,118.3,120.6,121z M122.5,94.1H67.3L57.2,64.8h74.5L122.5,94.1z"/>
</svg>
