<?xml version="1.0" encoding="utf-8"?>
<!-- Generator: Adobe Illustrator 18.0.0, SVG Export Plug-In . SVG Version: 6.00 Build 0)  -->
<!DOCTYPE svg PUBLIC "-//W3C//DTD SVG 1.1//EN" "http://www.w3.org/Graphics/SVG/1.1/DTD/svg11.dtd">
<svg version="1.1" id="Layer_1" xmlns="http://www.w3.org/2000/svg" xmlns:xlink="http://www.w3.org/1999/xlink" x="0px" y="0px"
	 width="180.4px" height="180.4px" viewBox="0 0 180.4 180.4" enable-background="new 0 0 180.4 180.4" xml:space="preserve">
<g>
	<g>
		<path fill="#fff" d="M56.8,68.9c0-8.1,6.8-14.8,15.2-14.8c8.3,0,15.2,6.7,15.2,14.8c0,8.2-6.9,14.8-15.2,14.8
			C63.6,83.7,56.8,77.1,56.8,68.9z M110.9,57.2c1-1.3,2.2-1.9,4-1.9h1.8c2.8,0,3.7,1.8,2,4l-49.4,64.6c-1.1,1.4-2.2,2-4,2h-1.8
			c-2.8,0-3.7-1.8-2-4L110.9,57.2z M79.4,68.9c0-4.1-3.3-7.5-7.4-7.5c-4.2,0-7.4,3.4-7.4,7.5c0,4.2,3.2,7.4,7.4,7.4
			C76.1,76.3,79.4,73.1,79.4,68.9z M108.2,97.5c8.4,0,15.2,6.7,15.2,14.8c0,8.2-6.8,14.8-15.2,14.8s-15.1-6.6-15.1-14.8
			C93.1,104.2,99.8,97.5,108.2,97.5z M108.2,119.7c4.2,0,7.4-3.2,7.4-7.4c0-4.1-3.2-7.5-7.4-7.5c-4.1,0-7.3,3.4-7.3,7.5
			C100.9,116.5,104.1,119.7,108.2,119.7z"/>
	</g>
</g>
</svg>
