<?xml version="1.0" encoding="utf-8"?>
<!-- Generator: Adobe Illustrator 18.0.0, SVG Export Plug-In . SVG Version: 6.00 Build 0)  -->
<!DOCTYPE svg PUBLIC "-//W3C//DTD SVG 1.1//EN" "http://www.w3.org/Graphics/SVG/1.1/DTD/svg11.dtd">
<svg version="1.1" xmlns="http://www.w3.org/2000/svg" xmlns:xlink="http://www.w3.org/1999/xlink" x="0px" y="0px" width="180.4px"
	 height="180.4px" viewBox="0 0 180.4 180.4" enable-background="new 0 0 180.4 180.4" xml:space="preserve">
<g id="Layer_2">
</g>
<g id="Layer_1">
	<g>
		<path fill="#fff" d="M58.8,134.7c-5.3,0-10.2-3.4-12.3-8.5c-2-4.8-0.9-10,3-13.9l36.7-36.7c-3-9.8-0.4-20.4,6.9-27.7
			c5.2-5.2,12.2-8.1,19.6-8.1c3,0,6.1,0.5,9,1.5c0,0,0.1,0,0.2,0.1c3.6,1.4,4.5,6,1.8,8.7l-11.7,11.7c-1.9,1.9-1.7,3.7-1.2,4.9
			c0.8,1.9,2.7,3.3,4.5,3.3c1.1,0,2.2-0.5,3.2-1.5l11.7-11.7c2.7-2.7,7.2-1.8,8.7,1.8c0.1,0.2,0.1,0.3,0.2,0.4
			c3.3,9.8,0.7,20.9-6.7,28.3c-5.2,5.2-12.2,8.1-19.6,8.1h0c-2.8,0-5.5-0.4-8.1-1.2l-36.7,36.7C65.3,133.3,62.2,134.7,58.8,134.7z
			 M112.7,46.8c-5.5,0-10.7,2.2-14.6,6.1c-5.9,5.9-7.7,14.7-4.6,22.4l0.9,2.1l-39.9,39.9c-2.4,2.4-2.1,4.7-1.5,6.3
			c1,2.4,3.4,4.1,5.8,4.1c1.5,0,2.9-0.6,4.2-1.9l39.9-39.9l2.1,0.9c2.5,1,5.1,1.5,7.7,1.5h0c5.5,0,10.7-2.2,14.6-6.1
			c4.9-4.9,6.9-11.9,5.7-18.5l-9.6,9.6c-2.3,2.3-5.2,3.6-8.2,3.6h0c-4.7,0-9.1-3-11-7.6c-1.8-4.3-0.8-9,2.7-12.5l9.6-9.6
			C115.3,46.9,114,46.8,112.7,46.8z"/>
	</g>
</g>
</svg>
