<?xml version="1.0" encoding="utf-8"?>
<!-- Generator: Adobe Illustrator 18.0.0, SVG Export Plug-In . SVG Version: 6.00 Build 0)  -->
<!DOCTYPE svg PUBLIC "-//W3C//DTD SVG 1.1//EN" "http://www.w3.org/Graphics/SVG/1.1/DTD/svg11.dtd">
<svg version="1.1" id="Layer_1" xmlns="http://www.w3.org/2000/svg" xmlns:xlink="http://www.w3.org/1999/xlink" x="0px" y="0px"
	 width="180.4px" height="180.4px" viewBox="0 0 180.4 180.4" enable-background="new 0 0 180.4 180.4" xml:space="preserve">
<g>
	<path fill="#fff" d="M111.1,88.5c-1.4-1-3.3-0.6-4.1,0.9l-0.7,1.2c-0.7,1.2-0.4,2.8,0.7,3.6c4.9,3.7,7.8,9.5,7.8,15.6v17.5H60.7
		v-17.5c0-6.2,2.9-12,7.8-15.6c1.1-0.8,1.4-2.4,0.7-3.6l-0.7-1.2c-0.8-1.5-2.8-1.9-4.1-0.9c-6.6,5-10.7,12.9-10.7,21.3v18.8
		c0,3.1,2.5,5.7,5.7,5.7h56.8c3.1,0,5.7-2.5,5.7-5.7v-18.8C121.8,101.4,117.8,93.5,111.1,88.5z"/>
	<path fill="#fff" d="M120.3,55.1h-10.9c-1.5-10.7-10.7-19-21.8-19h-0.4c-12.2,0-22,9.9-22,22v0.5c0,1.6,1.3,2.8,2.8,2.8h0.5v3.9
		c0,10.4,8.5,18.9,18.9,18.9h0.3c10.4,0,18.9-8.5,18.9-18.9v-4.2h13.6c1.6,0,2.8-1.3,2.8-2.8V58C123.2,56.4,121.9,55.1,120.3,55.1z
		 M87.2,43.1h0.4c7.3,0,13.3,5.2,14.7,12H72.5C73.9,48.3,79.9,43.1,87.2,43.1z M99.7,65.4c0,6.6-5.4,11.9-11.9,11.9h-0.3
		c-6.6,0-11.9-5.4-11.9-11.9v-4.2h24.2V65.4z"/>
</g>
</svg>
