<?xml version="1.0" encoding="utf-8"?>
<!-- Generator: Adobe Illustrator 18.0.0, SVG Export Plug-In . SVG Version: 6.00 Build 0)  -->
<!DOCTYPE svg PUBLIC "-//W3C//DTD SVG 1.1//EN" "http://www.w3.org/Graphics/SVG/1.1/DTD/svg11.dtd">
<svg version="1.1" id="Layer_1" xmlns="http://www.w3.org/2000/svg" xmlns:xlink="http://www.w3.org/1999/xlink" x="0px" y="0px"
	 width="180.4px" height="180.4px" viewBox="0 0 180.4 180.4" enable-background="new 0 0 180.4 180.4" xml:space="preserve">
<g>
	<g>
		<path fill="#fff" d="M147.6,119.2h-11.1v-7h9.8V94.1l-7.6-6.1l-1.9-26.5H113v-7h25c3,0,5.4,2.3,5.7,5.3l1.7,24.7l5.7,4.6
			c1.3,1.1,2.1,2.7,2.1,4.4v20C153.3,116.7,150.8,119.2,147.6,119.2z"/>
		<path fill="#fff" d="M62.7,131.6c-8.2,0-14.9-6.7-14.9-14.9c0-8.2,6.7-14.9,14.9-14.9s14.9,6.7,14.9,14.9
			C77.5,124.9,70.9,131.6,62.7,131.6z M62.7,108.8c-4.3,0-7.9,3.5-7.9,7.9s3.5,7.9,7.9,7.9s7.9-3.5,7.9-7.9S67,108.8,62.7,108.8z"/>
		<path fill="#fff" d="M125.2,131.6c-8.2,0-14.9-6.7-14.9-14.9c0-8.2,6.7-14.9,14.9-14.9c8.2,0,14.9,6.7,14.9,14.9
			C140,124.9,133.4,131.6,125.2,131.6z M125.2,108.8c-4.3,0-7.9,3.5-7.9,7.9s3.5,7.9,7.9,7.9c4.3,0,7.9-3.5,7.9-7.9
			S129.5,108.8,125.2,108.8z"/>
		<rect x="75.4" y="113.2" fill="#fff" width="38.4" height="7"/>
		<path fill="#fff" d="M50.7,120.2H36.9c-3.1,0-5.7-2.5-5.7-5.7V54.5c0-3.1,2.5-5.7,5.7-5.7h72c3.1,0,5.7,2.5,5.7,5.7v30.1
			c0,1.6-1.3,2.8-2.8,2.8h-1.3c-1.6,0-2.8-1.3-2.8-2.8V55.8H38.3v57.4h12.4V120.2z"/>
	</g>
</g>
</svg>
