<?xml version="1.0" encoding="utf-8"?>
<!-- Generator: Adobe Illustrator 18.0.0, SVG Export Plug-In . SVG Version: 6.00 Build 0)  -->
<!DOCTYPE svg PUBLIC "-//W3C//DTD SVG 1.1//EN" "http://www.w3.org/Graphics/SVG/1.1/DTD/svg11.dtd">
<svg version="1.1" xmlns="http://www.w3.org/2000/svg" xmlns:xlink="http://www.w3.org/1999/xlink" x="0px" y="0px" width="180.4px"
	 height="180.4px" viewBox="0 0 180.4 180.4" enable-background="new 0 0 180.4 180.4" xml:space="preserve">
<g id="Layer_2">
</g>
<g id="Layer_1">
	<path fill="#fff" d="M122.4,100.1H81.4c-3.5,0-6.2-3.2-5.6-6.6l6.9-39.9c0.5-2.7,2.8-4.7,5.6-4.7h20.5c3.1,0,5.7,2.5,5.7,5.7v22
		h8c3.1,0,5.7,2.5,5.7,5.7v12.2C128.1,97.6,125.6,100.1,122.4,100.1z M82.4,93.6h39.2V83H108V55.4H89L82.4,93.6z"/>
	<path fill="#fff" d="M131.6,131.3H67.5c-7.3,0-13.2-5.9-13.2-13.2c0-7.3,5.9-13.2,13.2-13.2h64.2c7.3,0,13.2,5.9,13.2,13.2
		C144.8,125.4,138.9,131.3,131.6,131.3z M67.5,111.4c-3.7,0-6.7,3-6.7,6.7c0,3.7,3,6.7,6.7,6.7h64.2c3.7,0,6.7-3,6.7-6.7
		c0-3.7-3-6.7-6.7-6.7H67.5z"/>
	<path fill="#fff" d="M55.3,100.1H38.5c-5.6,0-10.2-4.6-10.2-10.2V72.6c0-1.5,0.6-2.9,1.6-4l18.3-18.5c2.3-2.3,6-2.2,8.2,0.2
		l27,29.7l-4.8,4.4L52.3,55.3L36,71.7l21.3,23.6C59,97.2,57.7,100.1,55.3,100.1z M34.8,80.1v9.8c0,2,1.7,3.7,3.7,3.7H47L34.8,80.1z"
		/>
	<path fill="#fff" d="M67.5,131.3c-7.3,0-13.2-5.9-13.2-13.2c0-7.3,5.9-13.2,13.2-13.2c7.3,0,13.2,5.9,13.2,13.2
		C80.7,125.4,74.7,131.3,67.5,131.3z M67.5,111.4c-3.7,0-6.7,3-6.7,6.7c0,3.7,3,6.7,6.7,6.7c3.7,0,6.7-3,6.7-6.7
		C74.2,114.4,71.2,111.4,67.5,111.4z"/>
	<path fill="#fff" d="M131.6,131.3c-7.3,0-13.2-5.9-13.2-13.2c0-7.3,5.9-13.2,13.2-13.2c7.3,0,13.2,5.9,13.2,13.2
		C144.8,125.4,138.9,131.3,131.6,131.3z M131.6,111.4c-3.7,0-6.7,3-6.7,6.7c0,3.7,3,6.7,6.7,6.7c3.7,0,6.7-3,6.7-6.7
		C138.3,114.4,135.3,111.4,131.6,111.4z"/>
</g>
</svg>
