<?xml version="1.0" encoding="utf-8"?>
<!-- Generator: Adobe Illustrator 18.0.0, SVG Export Plug-In . SVG Version: 6.00 Build 0)  -->
<!DOCTYPE svg PUBLIC "-//W3C//DTD SVG 1.1//EN" "http://www.w3.org/Graphics/SVG/1.1/DTD/svg11.dtd">
<svg version="1.1" id="Layer_1" xmlns="http://www.w3.org/2000/svg" xmlns:xlink="http://www.w3.org/1999/xlink" x="0px" y="0px"
	 width="180.4px" height="180.4px" viewBox="0 0 180.4 180.4" enable-background="new 0 0 180.4 180.4" xml:space="preserve">
<g>
	<path fill="#fff" d="M89.2,98.7H89c-6.4,0-11.7-5.2-11.7-11.7v-3.4c0-6.4,5.2-11.7,11.7-11.7h0.2c6.4,0,11.7,5.2,11.7,11.7V87
		C100.9,93.5,95.6,98.7,89.2,98.7z M89,78.4c-2.8,0-5.2,2.3-5.2,5.2V87c0,2.8,2.3,5.2,5.2,5.2h0.2c2.8,0,5.2-2.3,5.2-5.2v-3.4
		c0-2.8-2.3-5.2-5.2-5.2H89z"/>
	<path fill="#fff" d="M105.3,131.4H73c-3.1,0-5.7-2.5-5.7-5.7V117c0-6,3.2-11.5,8.1-14.6c1.5-1,3.6-0.3,4.2,1.4l0.3,0.8
		c0.5,1.3,0,2.7-1.2,3.4c-3,2-5,5.4-5,9.1v7.9h30.6V117c0-3.7-1.9-7.1-5-9.1c-1.1-0.7-1.6-2.1-1.2-3.4l0.3-0.8
		c0.6-1.7,2.7-2.4,4.2-1.4c5,3.1,8.1,8.6,8.1,14.6v8.8C110.9,128.8,108.4,131.4,105.3,131.4z"/>
	<path fill="#fff" d="M59.7,79.5h-0.3c-8.9,0-16.1-7.2-16.1-16.1v-5.3c0-8.9,7.2-16.1,16.1-16.1h0.3c8.9,0,16.1,7.2,16.1,16.1
		v5.3C75.9,72.2,68.6,79.5,59.7,79.5z M59.5,48.5c-5.3,0-9.6,4.3-9.6,9.6v5.3c0,5.3,4.3,9.6,9.6,9.6h0.3c5.3,0,9.6-4.3,9.6-9.6v-5.3
		c0-5.3-4.3-9.6-9.6-9.6H59.5z"/>
	<path fill="#fff" d="M56.8,131.4H36.5c-3.1,0-5.7-2.5-5.7-5.7v-21.1c0-8.2,4.6-15.8,11.7-19.7c1.5-0.8,3.4-0.1,4,1.5l0.3,0.8
		c0.5,1.3,0,2.8-1.3,3.5c-5,2.8-8.2,8.1-8.2,14v20.2h19.4c1.6,0,2.8,1.3,2.8,2.8v0.8C59.6,130.1,58.3,131.4,56.8,131.4z"/>
	<path fill="#fff" d="M118.8,79.5h-0.3c-8.9,0-16.1-7.2-16.1-16.1v-5.3c0-8.9,7.2-16.1,16.1-16.1h0.3c8.9,0,16.1,7.2,16.1,16.1
		v5.3C134.9,72.2,127.7,79.5,118.8,79.5z M118.5,48.5c-5.3,0-9.6,4.3-9.6,9.6v5.3c0,5.3,4.3,9.6,9.6,9.6h0.3c5.3,0,9.6-4.3,9.6-9.6
		v-5.3c0-5.3-4.3-9.6-9.6-9.6H118.5z"/>
	<path fill="#fff" d="M141.7,131.4h-20.2c-1.6,0-2.8-1.3-2.8-2.8v-0.8c0-1.6,1.3-2.8,2.8-2.8h19.4v-20.2c0-5.8-3.2-11.2-8.2-14
		c-1.2-0.7-1.8-2.1-1.3-3.5l0.3-0.8c0.6-1.6,2.5-2.3,4-1.5c7.1,3.9,11.7,11.5,11.7,19.7v21.1C147.4,128.8,144.8,131.4,141.7,131.4z"
		/>
</g>
</svg>
