<?xml version="1.0" encoding="utf-8"?>
<!-- Generator: Adobe Illustrator 18.0.0, SVG Export Plug-In . SVG Version: 6.00 Build 0)  -->
<!DOCTYPE svg PUBLIC "-//W3C//DTD SVG 1.1//EN" "http://www.w3.org/Graphics/SVG/1.1/DTD/svg11.dtd">
<svg version="1.1" xmlns="http://www.w3.org/2000/svg" xmlns:xlink="http://www.w3.org/1999/xlink" x="0px" y="0px" width="180.4px"
	 height="180.4px" viewBox="0 0 180.4 180.4" enable-background="new 0 0 180.4 180.4" xml:space="preserve">
<g id="Layer_2">
</g>
<g id="Layer_1">
	<g>
		<circle fill="#fff" cx="43.9" cy="105.8" r="7.1"/>
		<g>
			<path fill="#fff" d="M111.8,84.4h4.1v25.8c0,1.7-8.3,5.5-24.3,5.5c-16.1,0-24.3-3.9-24.3-5.5l0-25.8h6.1l-13.1-4.8l0,30.6
				c0,3.1,1.9,7.5,11.2,10.1c5.4,1.5,12.5,2.4,20.1,2.4c7.6,0,14.8-0.9,20.1-2.4c9.3-2.7,11.2-7,11.2-10.1V80.4L111.8,84.4z"/>
			<path fill="#fff" d="M90.6,94.5l-42-15.3c-5.1-1.9-4.9-9.1,0.2-10.7l42-13.3c1.1-0.4,2.3-0.4,3.4,0l42,13.3
				c5.2,1.6,5.3,8.9,0.2,10.7l-42,15.3C93.3,94.9,91.9,94.9,90.6,94.5z M54.7,73.9l37.8,13.8l37.8-13.8l-37.8-12L54.7,73.9z"/>
		</g>
		<path fill="#fff" d="M47.1,105.8h-6.5V76.1c0-3.1,2.5-5.7,5.7-5.7h43.4c1.6,0,2.8,1.3,2.8,2.8v0.8c0,1.6-1.3,2.8-2.8,2.8H47.1
			V105.8z"/>
	</g>
</g>
</svg>
