<?xml version="1.0" encoding="utf-8"?>
<!-- Generator: Adobe Illustrator 18.0.0, SVG Export Plug-In . SVG Version: 6.00 Build 0)  -->
<!DOCTYPE svg PUBLIC "-//W3C//DTD SVG 1.1//EN" "http://www.w3.org/Graphics/SVG/1.1/DTD/svg11.dtd">
<svg version="1.1" id="Layer_1" xmlns="http://www.w3.org/2000/svg" xmlns:xlink="http://www.w3.org/1999/xlink" x="0px" y="0px"
	 width="180.4px" height="180.4px" viewBox="0 0 180.4 180.4" enable-background="new 0 0 180.4 180.4" xml:space="preserve">
<g>
	<path fill="#fff" d="M110.8,48.6H102l5.9-15h5.2c1.6,0,2.8-1.3,2.8-2.8v-0.3c0-1.6-1.3-2.8-2.8-2.8H67.2c-1.6,0-2.8,1.3-2.8,2.8
		v0.3c0,1.6,1.3,2.8,2.8,2.8h5.2l5.9,15h-8.8c-9.8,0-17.7,7.9-17.7,17.7v54c0,3.1,2.5,5.7,5.7,5.7h4L56.6,136
		c-0.9,1.9,0.5,4.1,2.6,4.1h1.5c1.1,0,2.1-0.6,2.6-1.6l6.1-12.6H111l6.1,12.6c0.5,1,1.5,1.6,2.6,1.6h1.5c2.1,0,3.5-2.2,2.6-4.1
		l-4.9-10.1h4c3.1,0,5.7-2.5,5.7-5.7v-54C128.5,56.5,120.6,48.6,110.8,48.6z M79.4,33.5h21.6l-5.9,15h-9.8L79.4,33.5z M69.5,55.6
		h41.4c5.9,0,10.7,4.8,10.7,10.7v26.8H58.8V66.3C58.8,60.4,63.6,55.6,69.5,55.6z M58.8,118.9v-18.8h62.7v18.8H58.8z"/>
	<path fill="#fff" d="M70.6,105.4h-2.9c-1.6,0-2.8,1.3-2.8,2.8v2.9c0,1.6,1.3,2.8,2.8,2.8h2.9c1.6,0,2.8-1.3,2.8-2.8v-2.9
		C73.4,106.6,72.2,105.4,70.6,105.4z"/>
	<path fill="#fff" d="M112.6,105.4h-2.9c-1.6,0-2.8,1.3-2.8,2.8v2.9c0,1.6,1.3,2.8,2.8,2.8h2.9c1.6,0,2.8-1.3,2.8-2.8v-2.9
		C115.5,106.6,114.2,105.4,112.6,105.4z"/>
</g>
</svg>
