<?xml version="1.0" encoding="utf-8"?>
<!-- Generator: Adobe Illustrator 18.0.0, SVG Export Plug-In . SVG Version: 6.00 Build 0)  -->
<!DOCTYPE svg PUBLIC "-//W3C//DTD SVG 1.1//EN" "http://www.w3.org/Graphics/SVG/1.1/DTD/svg11.dtd">
<svg version="1.1" id="Layer_1" xmlns="http://www.w3.org/2000/svg" xmlns:xlink="http://www.w3.org/1999/xlink" x="0px" y="0px"
	 width="180.4px" height="180.4px" viewBox="0 0 180.4 180.4" enable-background="new 0 0 180.4 180.4" xml:space="preserve">
<g>
	<path fill="#fff" d="M59.1,128.7c-7.5,0-13.7-6.1-13.7-13.7c0-7.5,6.1-13.7,13.7-13.7c7.5,0,13.7,6.1,13.7,13.7
		C72.8,122.6,66.6,128.7,59.1,128.7z M59.1,108.4c-3.7,0-6.7,3-6.7,6.7c0,3.7,3,6.7,6.7,6.7s6.7-3,6.7-6.7
		C65.8,111.4,62.8,108.4,59.1,108.4z"/>
	<path fill="#fff" d="M127.7,128.7c-7.5,0-13.7-6.1-13.7-13.7c0-7.5,6.1-13.7,13.7-13.7c7.5,0,13.7,6.1,13.7,13.7
		C141.4,122.6,135.3,128.7,127.7,128.7z M127.7,108.4c-3.7,0-6.7,3-6.7,6.7c0,3.7,3,6.7,6.7,6.7c3.7,0,6.7-3,6.7-6.7
		C134.4,111.4,131.4,108.4,127.7,108.4z"/>
	<rect x="72.1" y="111.6" fill="#fff" width="44.1" height="7"/>
	<path fill="#fff" d="M135.8,88.2h-20.8c-3.1,0-5.7-2.5-5.7-5.7v-9.6c0-3.1,2.5-5.7,5.7-5.7h14v7h-12.6v7h19.5V88.2z"/>
	<path fill="#fff" d="M141.7,118.6h-2.4v-7h2.4c3.4,0,5.3-1.5,5.5-1.7l0.2-0.2c0.3-0.3,1.8-1.9,1.8-5V94.7l-17.3-8l-9.7-23.5H43
		c-3.7,0-6.7,3-6.7,6.7v41.7H47v7H35c-3.1,0-5.7-2.5-5.7-5.7v-43c0-7.5,6.1-13.7,13.7-13.7h80.2c2.3,0,4.4,1.4,5.2,3.5l9,21.8
		l15.6,7.2c2,0.9,3.3,2.9,3.3,5.1v10.9c0,5.7-3,9.1-3.9,10l-0.5,0.5l-0.2,0.2C150.5,116.3,147,118.6,141.7,118.6z"/>
	<path fill="#fff" d="M98.1,88.5h-1.3c-1.6,0-2.8-1.3-2.8-2.8v-4.8c0-1.6,1.3-2.8,2.8-2.8h1.3c1.6,0,2.8,1.3,2.8,2.8v4.8
		C100.9,87.2,99.7,88.5,98.1,88.5z"/>
</g>
</svg>
