<svg version="1.1" xmlns="http://www.w3.org/2000/svg" viewBox="0 0 612 792">
<path fill="#37B441" d="M560.604,461.142l-65.146,25.699l20.32,66.938l-69.328-1.195l-6.574,69.328l-63.949-27.492l-32.87,61.561l-48.411-50.203
	L240.857,650.6l-25.699-65.145l-66.938,20.918l1.195-69.926l-69.328-6.574l27.492-63.949L46.02,433.652l50.202-49.008
	l-44.824-53.788l65.145-25.699l-20.32-66.34l69.328,1.195l6.574-69.926l63.949,28.09l32.871-62.156l48.413,50.201l53.789-44.227
	l25.697,64.547l66.938-20.32l-1.195,69.926l69.328,6.574l-27.492,63.949l61.561,32.273l-50.203,48.41L560.604,461.142z"/>
</svg>
