<svg version="1.1" xmlns="http://www.w3.org/2000/svg" viewBox="0 0 40.007 40.007">
<path fill="#8ac007" d="M24.246,19.104l-2.242,2.242v-8.343c0-1.104-0.896-2-2-2s-2,0.896-2,2v8.343l-2.243-2.242
	c-0.781-0.781-2.047-0.781-2.828,0s-0.781,2.048,0,2.828l5.657,5.657h-0.001c0.391,0.391,0.902,0.586,1.415,0.586
	c0.256,0,0.512-0.049,0.752-0.146c0.241-0.098,0.467-0.244,0.662-0.439l5.656-5.657c0.781-0.78,0.781-2.047,0-2.828
	C26.294,18.322,25.027,18.322,24.246,19.104z M30.004,2.683C20.438-2.84,8.206,0.438,2.684,10.004
	c-5.523,9.565-2.246,21.797,7.32,27.32c9.565,5.522,21.798,2.245,27.32-7.32C42.848,20.438,39.569,8.206,30.004,2.683z
	 M33.86,28.004c-4.419,7.652-14.204,10.274-21.856,5.855C4.352,29.441,1.729,19.656,6.147,12.004
	c4.418-7.653,14.203-10.275,21.856-5.856C35.656,10.565,38.278,20.351,33.86,28.004z"/>
</svg>
