<svg version="1.1" xmlns="http://www.w3.org/2000/svg" viewBox="0 0 100 100">
<path fill="#333" d="M74.927,50L46.524,21.598c-2.041-2.042-2.041-5.352,0-7.393c2.041-2.042,5.351-2.042,7.393,0l32.1,32.099
	c1.02,1.021,1.53,2.358,1.53,3.696s-0.511,2.676-1.53,3.696l-32.1,32.099c-2.042,2.042-5.352,2.042-7.393,0
	c-2.041-2.041-2.041-5.352,0-7.393L74.927,50z M13.983,78.402c-2.041,2.041-2.041,5.352,0,7.393c2.041,2.042,5.35,2.042,7.393,0
	l32.1-32.099c1.02-1.021,1.529-2.358,1.529-3.696s-0.51-2.676-1.529-3.696l-32.1-32.099c-2.043-2.042-5.352-2.042-7.393,0
	c-2.041,2.041-2.041,5.351,0,7.393L42.386,50L13.983,78.402z"/>
</svg>
