<svg version="1.1" xmlns="http://www.w3.org/2000/svg" viewBox="0 0 16 16">
<path fill="#333" d="M5.022,7.817l2.996-2.651l2.996,2.651c0.196,0.196,0.516,0.196,0.711,0c0.198-0.196,0.198-0.514,0.002-0.711L8.381,4.147
	c-0.1-0.1-0.231-0.148-0.362-0.146C7.887,3.999,7.756,4.047,7.656,4.147L4.311,7.106c-0.196,0.196-0.196,0.515,0,0.711
	C4.507,8.013,4.826,8.013,5.022,7.817z"/>
<path fill="#333" d="M8.381,7.733c-0.1-0.1-0.231-0.148-0.362-0.146C7.887,7.585,7.756,7.633,7.656,7.733l-3.345,2.958
	c-0.196,0.197-0.196,0.516,0,0.711c0.196,0.197,0.515,0.197,0.711,0l2.996-2.649l2.996,2.649c0.196,0.197,0.516,0.197,0.711,0
	c0.196-0.195,0.196-0.514,0-0.711L8.381,7.733z"/>
</svg>
