<svg version="1.1" xmlns="http://www.w3.org/2000/svg" viewBox="0 0 100 100">
<path fill="#333" d="M53.475,78.402c2.041,2.041,2.041,5.352,0,7.393c-2.041,2.042-5.351,2.042-7.393,0l-32.1-32.099
	c-1.02-1.021-1.53-2.358-1.53-3.696s0.511-2.676,1.53-3.696l32.1-32.099c2.042-2.042,5.352-2.042,7.393,0
	c2.041,2.041,2.041,5.351,0,7.393L25.073,50L53.475,78.402z M57.614,50l28.402-28.402c2.041-2.042,2.041-5.352,0-7.393
	c-2.041-2.042-5.351-2.042-7.393,0l-32.1,32.099c-1.02,1.021-1.53,2.358-1.53,3.696s0.511,2.676,1.53,3.696l32.1,32.099
	c2.042,2.042,5.352,2.042,7.393,0c2.041-2.041,2.041-5.352,0-7.393L57.614,50z"/>
</svg>
