<svg version="1.1" xmlns="http://www.w3.org/2000/svg" viewBox="0 0 28.998 29.979">
<path fill="#333" d="M24.973,19.105v6.848H4.025v-6.848H0v8.861c0,1.111,0.9,2.012,2.016,2.012h24.967c1.115,0,2.016-0.9,2.016-2.012v-8.861
	H24.973z"/>
<path fill="#333" d="M14.131,18.426l-5.764-6.965c0,0-0.877-0.828,0.074-0.828s3.248,0,3.248,0s0-0.557,0-1.416c0-2.449,0-6.906,0-8.723
	c0,0-0.129-0.494,0.615-0.494c0.75,0,4.035,0,4.572,0C17.412,0,17.4,0.416,17.4,0.416c0,1.762,0,6.373,0,8.742
	c0,0.768,0,1.266,0,1.266s1.842,0,2.998,0c1.154,0,0.285,0.867,0.285,0.867s-4.904,6.51-5.588,7.193
	C14.602,18.979,14.131,18.426,14.131,18.426z"/>
</svg>
