<svg viewBox="0 0 32 32" preserveAspectRatio="xMinYMin meet" xmlns="http://www.w3.org/2000/svg">
<path d="m28.72,26.64c.29-.37.52-.71.52-1.16 0-.43-.19-.81-.49-1.07l-5.9-4.87c-.24-.2-.56-.32-.9-.32-.39,0-.74.15-.99.39l-.99,1.01c-.62.62-1.61.62-2.22,0l-6.02-6.03c-.62-.62-.62-1.62 0-2.23l.98-.98c.26-.26.41-.62.41-1 0-.39-.15-.73-.39-.99l-5.06-6.11c-.26-.32-.66-.52-1.11-.52-.47,0-.89.23-1.15.58l-.09.11c-1.1,1.49-2.54,3.85-2.54,6.07 0,6.11 13.62,19.71 19.67,19.71 4.73-.1 6.22-2.52 6.28-2.59" fill="#333" fill-rule="evenodd"/>
</svg>