<svg version="1.1" xmlns="http://www.w3.org/2000/svg" viewBox="0 0 42.732 42.732">
		<path style="fill:#ffff66;stroke:#333;stroke-width:3;fill-rule:nonzero;" d="M15.379,12.071l5.198-10.368c0.495-0.987,1.287-0.982,1.77,0.011l5.066,10.433
			c0.482,0.994,1.759,1.933,2.851,2.099l11.462,1.74c1.092,0.166,1.332,0.921,0.537,1.687l-8.354,8.043
			c-0.796,0.766-1.295,2.271-1.115,3.36l1.888,11.445c0.18,1.09-0.464,1.552-1.439,1.031l-10.231-5.463
			c-0.974-0.52-2.559-0.53-3.54-0.022L9.175,41.4c-0.981,0.508-1.619,0.038-1.425-1.049l2.033-11.418
			c0.194-1.087-0.287-2.598-1.073-3.374l-8.252-8.148c-0.786-0.776-0.536-1.528,0.558-1.68l11.486-1.596
			C13.596,13.982,14.884,13.059,15.379,12.071z"/>

</svg>
