
<svg version="1.1" xmlns="http://www.w3.org/2000/svg" viewBox="0 0 180.4 180.4">
<path fill="#fff" d="M93.6,111.3c0,0-0.1,0-0.1,0.1c-0.1,0.1-0.3,0.2-0.4,0.3c-0.1,0-0.1,0.1-0.2,0.1c-0.1,0.1-0.3,0.1-0.4,0.2
	c-0.1,0-0.1,0.1-0.2,0.1c-0.1,0-0.2,0.1-0.3,0.1c-0.1,0-0.2,0-0.3,0.1c-0.1,0-0.2,0.1-0.3,0.1c-0.1,0-0.2,0-0.3,0
	c-0.1,0-0.2,0-0.3,0c-0.1,0-0.2,0-0.3,0c-0.1,0-0.2,0-0.3,0c-0.1,0-0.2,0-0.3,0c-0.1,0-0.2,0-0.3,0c-0.1,0-0.2,0-0.3,0
	c-0.1,0-0.2,0-0.3,0c-0.1,0-0.2-0.1-0.3-0.1c-0.1,0-0.2,0-0.3-0.1c-0.1,0-0.2-0.1-0.3-0.1c-0.1,0-0.2-0.1-0.2-0.1
	c-0.1-0.1-0.3-0.1-0.4-0.2c-0.1,0-0.1-0.1-0.2-0.1c-0.1-0.1-0.3-0.2-0.4-0.2c0,0-0.1,0-0.1-0.1c-0.2-0.1-0.3-0.2-0.5-0.3
	c0,0,0,0,0,0c-0.2-0.1-0.3-0.3-0.5-0.4L54.1,78.8c-2.4-2.4-2.4-6.4,0-8.8c2.4-2.4,6.4-2.4,8.8,0l27.2,27.3l27.3-27.3
	c2.4-2.4,6.4-2.4,8.8,0c1.2,1.2,1.8,2.8,1.8,4.4c0,1.6-0.6,3.2-1.8,4.4l-31.7,31.7c-0.2,0.2-0.3,0.3-0.5,0.4c0,0,0,0,0,0
	C93.9,111.1,93.8,111.2,93.6,111.3z"/>
</svg>
