<svg version="1.1" xmlns="http://www.w3.org/2000/svg" viewBox="0 0 180.4 180.4">
<path fill="#fff" d="M93.6,69.1c0,0-0.1,0-0.1-0.1c-0.1-0.1-0.3-0.2-0.4-0.3c-0.1,0-0.1-0.1-0.2-0.1c-0.1-0.1-0.3-0.1-0.4-0.2
	c-0.1,0-0.1-0.1-0.2-0.1c-0.1,0-0.2-0.1-0.3-0.1c-0.1,0-0.2,0-0.3-0.1c-0.1,0-0.2-0.1-0.3-0.1c-0.1,0-0.2,0-0.3,0
	c-0.1,0-0.2,0-0.3,0c-0.1,0-0.2,0-0.3,0c-0.1,0-0.2,0-0.3,0c-0.1,0-0.2,0-0.3,0c-0.1,0-0.2,0-0.3,0c-0.1,0-0.2,0-0.3,0
	c-0.1,0-0.2,0-0.3,0c-0.1,0-0.2,0.1-0.3,0.1c-0.1,0-0.2,0-0.3,0.1c-0.1,0-0.2,0.1-0.3,0.1c-0.1,0-0.2,0.1-0.2,0.1
	c-0.1,0.1-0.3,0.1-0.4,0.2c-0.1,0-0.1,0.1-0.2,0.1C87.1,68.9,87,69,86.9,69c0,0-0.1,0-0.1,0.1c-0.2,0.1-0.3,0.2-0.5,0.3c0,0,0,0,0,0
	c-0.2,0.1-0.3,0.3-0.5,0.4l-31.6,31.7c-2.4,2.4-2.4,6.4,0,8.8c2.4,2.4,6.4,2.4,8.8,0l27.2-27.3l27.3,27.3c2.4,2.4,6.4,2.4,8.8,0
	c1.2-1.2,1.8-2.8,1.8-4.4c0-1.6-0.6-3.2-1.8-4.4L94.6,69.9c-0.2-0.2-0.3-0.3-0.5-0.4c0,0,0,0,0,0C93.9,69.3,93.8,69.2,93.6,69.1z"/>
</svg>
