<?xml version="1.0" encoding="utf-8"?>
<!-- Generator: Adobe Illustrator 18.0.0, SVG Export Plug-In . SVG Version: 6.00 Build 0)  -->
<!DOCTYPE svg PUBLIC "-//W3C//DTD SVG 1.1//EN" "http://www.w3.org/Graphics/SVG/1.1/DTD/svg11.dtd">
<svg version="1.1" id="Layer_1" xmlns="http://www.w3.org/2000/svg" xmlns:xlink="http://www.w3.org/1999/xlink" x="0px" y="0px"
	 width="180.4px" height="180.4px" viewBox="0 0 180.4 180.4" enable-background="new 0 0 180.4 180.4" xml:space="preserve">
<g>
	<path fill="#002776" d="M102.9,56.7h-2.1c-1.2,0-2.1-1-2.1-2.1v-2.1c0-1.2,1-2.1,2.1-2.1h2.1c1.2,0,2.1,1,2.1,2.1v2.1
		C105.1,55.7,104.1,56.7,102.9,56.7z"/>
	<path fill="#002776" d="M114.2,56.7h-2.1c-1.2,0-2.1-1-2.1-2.1v-2.1c0-1.2,1-2.1,2.1-2.1h2.1c1.2,0,2.1,1,2.1,2.1v2.1
		C116.3,55.7,115.3,56.7,114.2,56.7z"/>
	<path fill="#002776" d="M125.4,56.7h-2.1c-1.2,0-2.1-1-2.1-2.1v-2.1c0-1.2,1-2.1,2.1-2.1h2.1c1.2,0,2.1,1,2.1,2.1v2.1
		C127.5,55.7,126.6,56.7,125.4,56.7z"/>
</g>
<path fill="#002776" d="M80.6,107.6h-0.2c-7.7,0-13.9-6.2-13.9-13.9v-4.3c0-7.7,6.2-13.9,13.9-13.9h0.2c7.7,0,13.9,6.2,13.9,13.9
	v4.3C94.4,101.3,88.2,107.6,80.6,107.6z M80.3,81.9c-4.1,0-7.4,3.3-7.4,7.4v4.3c0,4.1,3.3,7.4,7.4,7.4h0.2c4.1,0,7.4-3.3,7.4-7.4
	v-4.3c0-4.1-3.3-7.4-7.4-7.4H80.3z"/>
<path fill="#002776" d="M100.6,146.2H60.3c-3.1,0-5.7-2.5-5.7-5.7v-13.1c0-6.1,2.8-11.9,7.5-15.8c1.3-1.1,3.3-0.7,4.2,0.8l0.4,0.7
	c0.7,1.2,0.4,2.7-0.7,3.6c-3.1,2.6-5,6.5-5,10.6v12.3h38.7v-12.3c0-4.1-1.9-8-5-10.6c-1.1-0.9-1.3-2.4-0.7-3.6l0.4-0.7
	c0.9-1.5,2.9-1.9,4.2-0.8c4.7,3.8,7.5,9.6,7.5,15.8v13.1C106.3,143.7,103.7,146.2,100.6,146.2z"/>
<path fill="#002776" d="M127.3,34.7c5.8,0,10.5,4.7,10.5,10.5v15.1c0,5.8-4.7,10.5-10.5,10.5h-8.4h-2.2l-1.7,1.4l-6.6,5.6v-1v-6h-6
	h-3.8c-5.8,0-10.5-4.7-10.5-10.5V45.2c0-5.8,4.7-10.5,10.5-10.5H127.3 M127.3,28.7H98.6c-9.1,0-16.5,7.4-16.5,16.5v15.1
	c0,9.1,7.4,16.5,16.5,16.5h3.8v8.3c0,1.2,1.3,2.3,2.8,2.3c0.7,0,1.3-0.2,2-0.7l11.7-9.9h8.4c9.1,0,16.5-7.4,16.5-16.5V45.2
	C143.9,36.1,136.5,28.7,127.3,28.7L127.3,28.7z"/>
</svg>
