<?xml version="1.0" encoding="utf-8"?>
<!-- Generator: Adobe Illustrator 18.0.0, SVG Export Plug-In . SVG Version: 6.00 Build 0)  -->
<!DOCTYPE svg PUBLIC "-//W3C//DTD SVG 1.1//EN" "http://www.w3.org/Graphics/SVG/1.1/DTD/svg11.dtd">
<svg version="1.1" xmlns="http://www.w3.org/2000/svg" xmlns:xlink="http://www.w3.org/1999/xlink" x="0px" y="0px" width="180.4px"
	 height="180.4px" viewBox="0 0 180.4 180.4" enable-background="new 0 0 180.4 180.4" xml:space="preserve">
<g id="sirkel">
</g>
<g id="Layer_3">
</g>
<g id="Layer_1">
</g>
<g id="Layer_4">
	<path fill="#002776" d="M126,121.7H54.8c-3.1,0-5.7-2.5-5.7-5.7V95c0-1.6,1.3-2.8,2.8-2.8h1.3c1.6,0,2.8,1.3,2.8,2.8v19.7h68.5V95
		c0-1.6,1.3-2.8,2.8-2.8h1.3c1.6,0,2.8,1.3,2.8,2.8V116C131.7,119.2,129.2,121.7,126,121.7z"/>
	<path fill="#002776" d="M79.2,90.2l8.4,8.4c1.1,1.1,2.9,1.1,4,0l8.4-8.4c1.8-1.8,0.5-4.8-2-4.8H81.2C78.7,85.3,77.5,88.4,79.2,90.2
		z"/>
	<path fill="#002776" d="M93.1,94.1h-7V51.6c0-1.6,1.3-2.8,2.8-2.8h1.3c1.6,0,2.8,1.3,2.8,2.8V94.1z"/>
</g>
</svg>
