<?xml version="1.0" encoding="utf-8"?>
<!-- Generator: Adobe Illustrator 18.0.0, SVG Export Plug-In . SVG Version: 6.00 Build 0)  -->
<!DOCTYPE svg PUBLIC "-//W3C//DTD SVG 1.1//EN" "http://www.w3.org/Graphics/SVG/1.1/DTD/svg11.dtd">
<svg version="1.1" id="Layer_1" xmlns="http://www.w3.org/2000/svg" xmlns:xlink="http://www.w3.org/1999/xlink" x="0px" y="0px"
	 width="180.4px" height="180.4px" viewBox="0 0 180.4 180.4" enable-background="new 0 0 180.4 180.4" xml:space="preserve">
<g>
	<path fill="#002776" d="M105.9,115H105c-1.6,0-2.8,1.3-2.8,2.8v1.1H53.8V86.6h-7l31.3-32.7l2.5,2.4c1.1,1.1,2.9,1,4-0.1l0.6-0.6
		c1.1-1.1,1-2.9-0.1-4L82,48.6c-2.3-2.1-5.8-2-8,0.2L62.6,60.7V52c0-1.6-1.3-2.8-2.8-2.8h-1.3c-1.6,0-2.8,1.3-2.8,2.8v16L40.8,83.5
		c-3.5,3.6-0.9,9.6,4.1,9.6h2.4v26.7c0,3.1,2.5,5.7,5.7,5.7H103c3.1,0,5.7-2.5,5.7-5.7v-2C108.7,116.3,107.4,115,105.9,115z"/>
	<path fill="#002776" d="M144.7,107.7l-12.9-12.9c7.7-9.7,7.1-23.9-1.8-32.8c-4.7-4.7-10.9-7.2-17.4-7.2c-6.6,0-12.8,2.6-17.4,7.2
		c-9.6,9.6-9.6,25.3,0,34.9c4.7,4.7,10.9,7.2,17.4,7.2c5.2,0,10.1-1.6,14.2-4.5l13.1,13.1c1.1,1.1,2.9,1.1,4,0l0.9-0.9
		C145.8,110.6,145.8,108.8,144.7,107.7z M99.9,91.9c-6.9-6.9-6.9-18.1,0-25c3.3-3.3,7.8-5.2,12.5-5.2c4.7,0,9.2,1.8,12.5,5.2
		c6.9,6.9,6.9,18.1,0,25c-3.3,3.3-7.8,5.2-12.5,5.2C107.7,97.1,103.3,95.2,99.9,91.9z"/>
</g>
</svg>
