<?xml version="1.0" encoding="UTF-8" standalone="no"?>
<svg width="35px" height="35px" viewBox="0 0 35 35" version="1.1" xmlns="http://www.w3.org/2000/svg" xmlns:xlink="http://www.w3.org/1999/xlink" xmlns:sketch="http://www.bohemiancoding.com/sketch/ns">
    <title>pwd</title>
    <description>Created with Sketch (http://www.bohemiancoding.com/sketch)</description>
    <defs/>
    <g id="Page 1" fill="rgb(206,206,206)" fill-rule="evenodd">
        <path d="M6.5,19.9999999 C7.88071194,19.9999999 9,18.8807118 9,17.4999999 C9,16.1192879 7.88071194,14.9999999 6.5,14.9999999 C5.11928806,14.9999999 4,16.1192879 4,17.4999999 C4,18.8807118 5.11928806,19.9999999 6.5,19.9999999 Z M8.5,24.9999999 C4.35786417,24.9999999 1,21.6421357 1,17.4999999 C1,13.3578641 4.35786417,9.99999988 8.5,9.99999988 C11.7888663,9.99999988 14.5832964,12.1169318 15.5950142,15.0624999 L31.2498483,15.0624999 L33.7187493,17.5314008 L31.1866767,20.0634734 L30.0597878,18.9365845 L27.9372557,18.9365845 L26.9013387,19.9725015 L26.0260779,19.0972407 L23.9995657,19.0972407 L23.0644851,20.0323213 L22.0153538,18.98319 L19.9314454,18.98319 L18.9172977,19.9973377 L15.5741762,19.9973377 C14.5453331,22.9117124 11.7665395,24.9999999 8.5,24.9999999 Z M8.5,24.9999999" id="pwd" fill="rgb(0,114,178)"/>
    </g>
</svg>