<?xml version="1.0" encoding="utf-8"?>
<!-- Generator: Adobe Illustrator 18.0.0, SVG Export Plug-In . SVG Version: 6.00 Build 0)  -->
<!DOCTYPE svg PUBLIC "-//W3C//DTD SVG 1.1//EN" "http://www.w3.org/Graphics/SVG/1.1/DTD/svg11.dtd">
<svg version="1.1" id="Layer_1" xmlns="http://www.w3.org/2000/svg" xmlns:xlink="http://www.w3.org/1999/xlink" x="0px" y="0px"
	 width="180.4px" height="180.4px" viewBox="0 0 180.4 180.4" enable-background="new 0 0 180.4 180.4" xml:space="preserve">
<path fill="#002776" d="M132.5,125.8l-21.6-21.6c5.6-6.5,8.7-14.7,8.7-23.3c0-9.5-3.7-18.5-10.5-25.3c-6.8-6.8-15.7-10.5-25.3-10.5
	s-18.5,3.7-25.3,10.5c-6.8,6.8-10.5,15.7-10.5,25.3c0,9.6,3.7,18.5,10.5,25.3c6.8,6.8,15.7,10.5,25.3,10.5c7.9,0,15.4-2.6,21.6-7.3
	l21.7,21.7c1.1,1.1,2.9,1.1,4,0l1.3-1.3C133.6,128.7,133.6,126.9,132.5,125.8z M63.8,100.9c-5.3-5.3-8.3-12.4-8.3-20
	c0-7.5,2.9-14.6,8.3-20s12.4-8.3,20-8.3s14.6,2.9,20,8.3s8.3,12.4,8.3,20c0,7.5-2.9,14.6-8.3,20s-12.4,8.3-20,8.3
	S69.2,106.2,63.8,100.9z"/>
</svg>
