<?xml version="1.0" encoding="UTF-8" standalone="no"?>
<svg width="20px" height="20px" viewBox="0 0 20 20" version="1.1" xmlns="http://www.w3.org/2000/svg" xmlns:xlink="http://www.w3.org/1999/xlink" xmlns:sketch="http://www.bohemiancoding.com/sketch/ns">
    <!-- Generator: Sketch 3.3.2 (12043) - http://www.bohemiancoding.com/sketch -->
    <title>radiobutton selected blue copy 6</title>
    <desc>Created with Sketch.</desc>
    <defs></defs>
    <g id="selective-controls" stroke="none" stroke-width="1" fill="none" fill-rule="evenodd" sketch:type="MSPage">
        <g id="Forms-Copy" sketch:type="MSArtboardGroup" transform="translate(-534.000000, -244.000000)" fill="#676767">
            <path d="M544,244 C538.47,244 534,248.47 534,254 C534,259.53 538.47,264 544,264 C549.53,264 554,259.53 554,254 C554,248.47 549.53,244 544,244 L544,244 Z M544,262 C539.59,262 536,258.41 536,254 C536,249.59 539.59,246 544,246 C548.41,246 552,249.59 552,254 C552,258.41 548.41,262 544,262 L544,262 Z" id="radiobutton-selected-blue-copy-6" sketch:type="MSShapeGroup"></path>
        </g>
    </g>
</svg>