<?xml version="1.0" encoding="utf-8"?>
<!-- Generator: Adobe Illustrator 18.0.0, SVG Export Plug-In . SVG Version: 6.00 Build 0)  -->
<!DOCTYPE svg PUBLIC "-//W3C//DTD SVG 1.1//EN" "http://www.w3.org/Graphics/SVG/1.1/DTD/svg11.dtd">
<svg version="1.1" id="Layer_1" xmlns:sketch="http://www.bohemiancoding.com/sketch/ns"
	 xmlns="http://www.w3.org/2000/svg" xmlns:xlink="http://www.w3.org/1999/xlink" x="0px" y="0px" viewBox="0 0 960 560"
	 enable-background="new 0 0 960 560" xml:space="preserve">
<circle fill="#FFFFFF" cx="480" cy="277" r="241"/>
<title>radiobutton selected</title>
<desc>Created with Sketch.</desc>
<g id="Page-1" sketch:type="MSPage">
	<g id="Forms" transform="translate(-1494.000000, -477.000000)" sketch:type="MSArtboardGroup">
		<path id="radiobutton-selected" sketch:type="MSShapeGroup" fill="#005AA4" d="M1974,617c-78.4,0-140,61.6-140,140
			s61.6,140,140,140s140-61.6,140-140S2052.4,617,1974,617L1974,617z M1974,477c-154,0-280,126-280,280s126,280,280,280
			s280-126,280-280S2128,477,1974,477L1974,477z M1974,981c-123.2,0-224-100.8-224-224s100.8-224,224-224s224,100.8,224,224
			S2097.2,981,1974,981L1974,981z"/>
	</g>
</g>
</svg>
