<?xml version="1.0" encoding="utf-8"?>
<!-- Generator: Adobe Illustrator 18.0.0, SVG Export Plug-In . SVG Version: 6.00 Build 0)  -->
<!DOCTYPE svg PUBLIC "-//W3C//DTD SVG 1.1//EN" "http://www.w3.org/Graphics/SVG/1.1/DTD/svg11.dtd">
<svg version="1.1" xmlns="http://www.w3.org/2000/svg" xmlns:xlink="http://www.w3.org/1999/xlink" x="0px" y="0px"
	 viewBox="0 0 48 48" enable-background="new 0 0 48 48" xml:space="preserve">
<g id="Layer_1">
	<g enable-background="new    ">
		<g>
			<defs>
				<rect id="SVGID_1_" x="-565" y="366" width="48" height="48"/>
			</defs>
			<clipPath id="SVGID_2_">
				<use xlink:href="#SVGID_1_"  overflow="visible"/>
			</clipPath>
			<g clip-path="url(#SVGID_2_)">
				<defs>
					<rect id="SVGID_3_" x="-696.2" y="-1476.2" width="1440" height="3000"/>
				</defs>
				<clipPath id="SVGID_4_">
					<use xlink:href="#SVGID_3_"  overflow="visible"/>
				</clipPath>
				<g clip-path="url(#SVGID_4_)">
					<defs>
						<path id="SVGID_5_" d="M-518.3,390c0-1.4-1.1-2.6-2.6-2.6c-1.4,0-2.6,1.1-2.6,2.6c-0.1,6.2-3.4,12-8.8,15.1
							c-8.4,4.9-19.2,2-24.1-6.5c-4.9-8.4-2-19.2,6.5-24.1c5.4-3.1,12.1-3.1,17.5-0.1c1.3,0.7,2.8,0.3,3.6-1c0.7-1.3,0.3-2.8-1-3.6
							c-7-4-15.7-3.9-22.7,0.1c-10.9,6.3-14.7,20.3-8.4,31.2s20.3,14.7,31.2,8.4C-522.8,405.6-518.4,398.1-518.3,390z"/>
					</defs>
					<clipPath id="SVGID_6_">
						<use xlink:href="#SVGID_5_"  overflow="visible"/>
					</clipPath>
					<g clip-path="url(#SVGID_6_)">
						<defs>
							<rect id="SVGID_7_" x="-565" y="366" width="48" height="48"/>
						</defs>
						<clipPath id="SVGID_8_">
							<use xlink:href="#SVGID_7_"  overflow="visible"/>
						</clipPath>
						<rect x="-569" y="362" clip-path="url(#SVGID_8_)" fill="#005AA4" width="55.7" height="55.7"/>
					</g>
				</g>
			</g>
			<g clip-path="url(#SVGID_2_)">
				<defs>
					<rect id="SVGID_9_" x="-696.2" y="-1476.2" width="1440" height="3000"/>
				</defs>
				<clipPath id="SVGID_10_">
					<use xlink:href="#SVGID_9_"  overflow="visible"/>
				</clipPath>
				<g clip-path="url(#SVGID_10_)">
					<defs>
						<rect id="SVGID_11_" x="-565" y="366" width="48" height="48"/>
					</defs>
					<clipPath id="SVGID_12_">
						<use xlink:href="#SVGID_11_"  overflow="visible"/>
					</clipPath>
					<path clip-path="url(#SVGID_12_)" fill="none" stroke="#005AA4" stroke-width="2" stroke-miterlimit="10" d="M-518.3,390
						c0-1.4-1.1-2.6-2.6-2.6c-1.4,0-2.6,1.1-2.6,2.6c-0.1,6.2-3.4,12-8.8,15.1c-8.4,4.9-19.2,2-24.1-6.5c-4.9-8.4-2-19.2,6.5-24.1
						c5.4-3.1,12.1-3.1,17.5-0.1c1.3,0.7,2.8,0.3,3.6-1c0.7-1.3,0.3-2.8-1-3.6c-7-4-15.7-3.9-22.7,0.1c-10.9,6.3-14.7,20.3-8.4,31.2
						s20.3,14.7,31.2,8.4C-522.8,405.6-518.4,398.1-518.3,390z"/>
				</g>
			</g>
		</g>
	</g>
</g>
<g id="Layer_2">
	<path fill="#FFFFFF" d="M83.8,12.1C83.8,12.1,83.8,12.1,83.8,12.1"/>
	<path fill="#005AA4" d="M34.7,12.1c-1.5-1.6-1.5-4.1,0.1-5.6c1.6-1.6,4.1-1.6,5.6,0l0,0C45,10.8,48,17.1,48,24
		c0,13.3-10.7,24-24,24S0,37.2,0,24c0-6.9,2.9-13.2,7.6-17.5l0,0c1.6-1.6,4.1-1.6,5.7,0s1.6,4.1,0,5.7l0,0C10,15,8,19.3,8,24
		c0,8.8,7.2,16,16,16s16-7.2,16-16C40,19.3,37.9,15,34.7,12.1"/>
</g>
</svg>
