<?xml version="1.0" encoding="UTF-8" standalone="no"?>
<svg width="89px" height="15px" viewBox="0 0 89 15" version="1.1" xmlns="http://www.w3.org/2000/svg" xmlns:xlink="http://www.w3.org/1999/xlink" xmlns:sketch="http://www.bohemiancoding.com/sketch/ns">
    <title>bidlogo</title>
    <description>Created with Sketch (http://www.bohemiancoding.com/sketch)</description>
    <defs/>
    <g id="Page 1" fill="#D8D8D8" fill-rule="evenodd">
        <g id="bidlogo">
            <g id="Group">
                <path d="M5.4275887,15 L0.571325127,15 C0.256335988,15 0,14.7643505 0,14.4712991 L0,13.5287009 C0,13.2366566 0.256335988,13 0.571325127,13 L5.42867487,13 C5.74366401,13 6,13.2366566 6,13.5287009 L6,14.4712991 C5.99891383,14.7643505 5.74366401,15 5.4275887,15" id="Shape" fill="#4C4F53"/>
                <path d="M21.4286749,15 L16.5713251,15 C16.256336,15 16,14.7643505 16,14.4712991 L16,13.5287009 C16,13.2366566 16.256336,13 16.5713251,13 L21.4286749,13 C21.743664,13 22,13.2366566 22,13.5287009 L22,14.4712991 C22,14.7643505 21.743664,15 21.4286749,15" id="Shape" fill="#4C4F53"/>
                <path d="M13.4295545,7 L8.57044549,7 C8.25534227,7 8,6.76370035 8,6.47209653 L8,5.528909 C8,5.23730518 8.25642883,5 8.57044549,5 L13.4295545,5 C13.7446577,5 14,5.23730518 14,5.528909 L14,6.471091 C14,6.76269482 13.7446577,7 13.4295545,7" id="Shape" fill="#4C4F53"/>
                <path d="M21.4286749,7 L16.5713251,7 C16.256336,7 16,6.76370035 16,6.47209653 L16,5.528909 C16,5.23730518 16.256336,5 16.5713251,5 L21.4286749,5 C21.743664,5 22,5.23730518 22,5.528909 L22,6.471091 C22,6.76269482 21.743664,7 21.4286749,7" id="Shape" fill="#4C4F53"/>
                <path d="M5.4275887,3 L0.571325127,3 C0.256335988,3 0,2.76257545 0,2.47183099 L0,1.52816901 C0,1.23641851 0.256335988,1 0.571325127,1 L5.42867487,1 C5.74366401,1 6,1.23641851 6,1.52816901 L6,2.47183099 C5.99891383,2.76257545 5.74366401,3 5.4275887,3" id="Shape" fill="#4C4F53"/>
                <path d="M21.4286749,3 L16.5713251,3 C16.256336,3 16,2.76257545 16,2.47183099 L16,1.52816901 C16,1.23641851 16.256336,1 16.5713251,1 L21.4286749,1 C21.743664,1 22,1.23641851 22,1.52816901 L22,2.47183099 C22,2.76257545 21.743664,3 21.4286749,3" id="Shape" fill="#4C4F53"/>
                <path d="M5.4275887,11 L0.571325127,11 C0.256335988,11 0,10.7625755 0,10.471831 L0,9.52816901 C0,9.23641851 0.256335988,9 0.571325127,9 L5.42867487,9 C5.74366401,9 6,9.23641851 6,9.52816901 L6,10.471831 C5.99891383,10.7625755 5.74366401,11 5.4275887,11" id="Shape" fill="#4C4F53"/>
                <path d="M13.4295545,11 L8.57044549,11 C8.25534227,11 8,10.7625755 8,10.471831 L8,9.52816901 C8,9.23641851 8.25642883,9 8.57044549,9 L13.4295545,9 C13.7446577,9 14,9.23641851 14,9.52816901 L14,10.471831 C14,10.7625755 13.7446577,11 13.4295545,11" id="Shape" fill="#4C4F53"/>
            </g>
            <g id="Group">
                <path d="M36.4383938,11.8604905 L36.4383938,6.92416855 C36.4383938,6.473328 36.2702208,6.08580162 35.9338748,5.7615894 C35.5986729,5.43846882 35.1913969,5.2758169 34.7109026,5.2758169 L31.310834,5.2758169 C30.837204,5.2758169 30.43336,5.43737719 30.0981581,5.7615894 C29.7618121,6.08580162 29.5947832,6.473328 29.5947832,6.92416855 L29.5947832,11.8593989 C29.5947832,12.3167892 29.7618121,12.7064988 30.0981581,13.0274361 C30.43336,13.3472819 30.837204,13.5077505 31.310834,13.5077505 L34.7109026,13.5077505 C35.1913969,13.5077505 35.5986729,13.3472819 35.9338748,13.021978 C36.2713648,12.6988574 36.4383938,12.3113311 36.4383938,11.8604905 L36.4383938,11.8604905 Z M38,11.8604905 C38,12.7272396 37.6785265,13.4662688 37.0367235,14.0797613 C36.3937765,14.6932538 35.6181215,15 34.7109026,15 L31.310834,15 C30.4024711,15 29.6245281,14.6932538 28.9747169,14.0786697 C28.3249056,13.4651772 28,12.726148 28,11.8583073 L28,0.740120806 C28,0.535987192 28.0766503,0.362419038 28.2322389,0.217233098 C28.3878275,0.0731387817 28.5765931,0 28.7973916,0 C29.01247,0 29.1978035,0.0720471581 29.3556801,0.217233098 C29.5147008,0.361327414 29.5947832,0.535987192 29.5947832,0.740120806 L29.5947832,4.23004148 C30.1038783,3.93421148 30.6758952,3.78575067 31.310834,3.78575067 L34.7109026,3.78575067 C35.6181215,3.78575067 36.3937765,4.09249691 37.0367235,4.70598937 C37.6785265,5.31839022 38,6.05851103 38,6.92526017 L38,11.8604905 L38,11.8604905 Z M38,11.8604905" id="Shape" fill="#4C4F53"/>
                <path d="M60.9988561,14.2736658 C60.9988561,14.4750682 60.9222146,14.6464745 60.7666438,14.7868134 C60.611073,14.9292949 60.4269046,15 60.2129947,15 C59.6959506,15 59.4374285,14.7568173 59.4374285,14.2736658 L59.4374285,7.08102844 C59.4374285,6.6385859 59.2704187,6.25827815 58.9329673,5.94010518 C58.5978037,5.62300351 58.1905742,5.46338138 57.7089911,5.46338138 L54.3093114,5.46338138 C53.8368794,5.46338138 53.4330817,5.62193222 53.0979181,5.94010518 C52.7616106,6.25827815 52.5934569,6.6385859 52.5934569,7.08102844 L52.5934569,14.2736658 C52.5934569,14.4750682 52.5145276,14.6464745 52.3555251,14.7868134 C52.1976664,14.9292949 52.0112102,15 51.7961565,15 C51.5765271,15 51.3866392,14.9292949 51.2322123,14.7868134 C51.0766415,14.6464745 51,14.4750682 51,14.2736658 L51,7.08102844 C51,6.23042462 51.3248685,5.50409038 51.9746054,4.903097 C52.6231984,4.30103233 53.4033402,4 54.3104553,4 L57.710135,4 C58.6195379,4 59.3951041,4.30103233 60.0368337,4.903097 C60.6797072,5.50409038 61,6.23042462 61,7.08102844 L61,14.2736658 L60.9988561,14.2736658 Z M60.9988561,14.2736658" id="Shape" fill="#4C4F53"/>
                <path d="M72,14.2576959 C72,14.7522014 71.7474547,15 71.242364,15 C71.0412218,15 70.8646635,14.9301361 70.7138068,14.7871334 L66.104296,10.4228222 C65.6919543,10.8474638 65.177924,11.3168619 64.5577353,11.8331999 L64.5577353,14.2522378 C64.5577353,14.4574631 64.4806307,14.6343061 64.3253042,14.7762172 C64.1699777,14.9214031 63.9878321,14.9934503 63.7799851,14.9934503 C63.5631984,14.9934503 63.3799354,14.9214031 63.2268438,14.7762172 C63.0759871,14.6332145 63,14.4585547 63,14.2533295 L63,0.740120806 C63,0.535987192 63.0759871,0.362419038 63.2268438,0.217233098 C63.378818,0.0731387817 63.562081,0 63.7799851,0 C63.9889496,0 64.1699777,0.0720471581 64.3253042,0.217233098 C64.4806307,0.362419038 64.5577353,0.537078815 64.5577353,0.740120806 L64.5577353,9.8213376 L70.7138068,4.00844189 C70.865781,3.8610727 71.0412218,3.7868423 71.242364,3.7868423 C71.7474547,3.7868423 72,4.03464086 72,4.5269631 C72,4.74528782 71.9251304,4.92540572 71.7720387,5.06622517 L67.2083437,9.39887927 L71.7720387,13.7217088 C71.9240129,13.860345 72,14.0415545 72,14.2576959" id="Shape" fill="#4C4F53"/>
                <path d="M79.5781402,13.5191396 L79.592021,13.5191396 L79.5781402,1.47757929 L84.0413512,1.47867299 C86.1843331,1.47867299 87.4998059,2.6697047 87.4998059,5.02114473 L87.4998059,9.99963544 C87.4998059,12.3434196 86.2099592,13.5147649 84.0413512,13.5147649 L79.5781402,13.5191396 L79.5781402,13.5191396 Z M83.9762182,15 C87.130363,15 89,13.2599344 89,9.82026978 L89,5.18082392 C89,1.6799125 87.0235877,0.00218738607 83.9441856,0.00218738607 L78.9780625,0 C78.7132596,0 78.481557,0.0962449872 78.2893613,0.287641269 C78.0971656,0.481224936 78,0.717462632 78,0.990885891 L78,14.0080204 C78,14.2814437 78.0971656,14.5187751 78.2893613,14.711265 C78.481557,14.9015676 78.7121918,15 78.9780625,15 L83.9762182,15 L83.9762182,15 Z M83.9762182,15" id="Shape" fill="#4C4F53"/>
                <path d="M47.5947152,11.9161881 L47.5947152,9.83568578 C45.4996568,9.82176579 43.6393274,9.76715662 43.0195607,9.94062105 C41.7800275,10.2854084 41.4258751,11.048866 41.4258751,11.9161881 C41.4258751,12.3605568 41.5772135,12.7417502 41.8788607,13.0586976 C42.1805079,13.3777864 42.5480439,13.5362601 42.9804393,13.5362601 L46.040151,13.5362601 C46.4653397,13.5362601 46.8308167,13.3777864 47.1355525,13.0586976 C47.4423473,12.7406795 47.5947152,12.359486 47.5947152,11.9161881 L47.5947152,11.9161881 Z M49,11.9204711 C49,12.770661 48.7107069,13.4955709 48.1331503,14.0973425 C47.5555937,14.6991142 46.8575841,15 46.040151,15 L42.9804393,15 C42.1568291,15 41.4536719,14.6991142 40.8719973,14.095201 C40.2903226,13.4934294 40,12.7674487 40,11.9161881 C40,10.4695805 40.7814001,9.2788864 42.3421414,8.69638859 C43.0926561,8.41905967 44.7347289,8.47366884 47.5947152,8.49401343 L47.5947152,7.07310425 C47.5947152,6.63301859 47.4423473,6.25396671 47.136582,5.93701937 C46.8318463,5.6211428 46.4663693,5.46159836 46.0411805,5.46159836 L42.9814688,5.46159836 C42.6664379,5.46159836 42.3555251,5.56010902 42.1146191,5.72929037 C41.8644475,5.9059671 41.6750172,6.18972063 41.5144132,6.42421883 C41.3980782,6.59340018 41.2312972,6.63408936 41.0315717,6.63408936 C40.8390528,6.63408936 40.6733013,6.56127713 40.5332876,6.41244038 C40.3943034,6.26360362 40.323267,6.08906843 40.323267,5.88990558 C40.323267,5.51085369 40.5734386,5.16713716 41.0315717,4.75167916 C41.6482498,4.19166748 42.3256692,4 42.9804393,4 L46.040151,4 C46.8565546,4 47.5555937,4.30088582 48.1331503,4.90265745 C48.7117364,5.50335832 49,6.22933904 49,7.07952886 L49,11.9204711 L49,11.9204711 Z M49,11.9204711" id="Shape" fill="#4C4F53"/>
                <path d="M75.6,14.2562254 C75.6,14.4626474 75.5229331,14.6384884 75.3653487,14.7826562 C75.2077642,14.9268239 75.0179727,15 74.7948239,15 C74.5774263,15 74.3910855,14.9279161 74.2346513,14.7826562 C74.0770669,14.6373962 74,14.4626474 74,14.2562254 L74,0.743774574 C74,0.538444736 74.0770669,0.363695937 74.2346513,0.217343818 C74.3910855,0.0720838794 74.5774263,0 74.7948239,0 C75.0179727,0 75.2089145,0.0720838794 75.3653487,0.217343818 C75.5229331,0.363695937 75.6,0.538444736 75.6,0.743774574 L75.6,14.2562254 L75.6,14.2562254 Z M75.6,14.2562254" id="Shape" fill="#4C4F53"/>
            </g>
        </g>
    </g>
</svg>