<?xml version="1.0" encoding="UTF-8" standalone="no"?>
<svg width="17px" height="21px" viewBox="0 0 17 21" version="1.1" xmlns="http://www.w3.org/2000/svg" xmlns:xlink="http://www.w3.org/1999/xlink" xmlns:sketch="http://www.bohemiancoding.com/sketch/ns">
    <title>lock</title>
    <description>Created with Sketch (http://www.bohemiancoding.com/sketch)</description>
    <defs/>
    <g id="Page 1" fill="rgb(206,206,206)" fill-rule="evenodd">
        <g id="lock">
            <g id="fill">
                <path d="M1,7 L1,20 L16,20 L16,7 L1,7 Z M1,7" id="Rectangle 1" fill="rgb(135,135,135)"/>
                <path d="M6.00579834,1 L10.9942017,1 C12.6511841,1 14,2.34174426 14,3.99686968 L14,7.00313032 C14,8.30209861 13.165425,9.41372416 12,9.82750483 L12,3.99754465 C12,3.44661595 11.5621186,3 10.9970707,3 L6.00292933,3 C5.44902676,3 5,3.4463114 5,3.99754465 L5,9.82767649 C3.8358981,9.41484037 3,8.30609078 3,7.00313032 L3,3.99686968 C3,2.34739093 4.34574176,1 6.00579834,1 Z M6.00579834,1" id="Rectangle 20" fill="rgb(135,135,135)"/>
            </g>
            <g id="check">
                <path d="M7.5,16.5 L12.5,11.5 L11.5,10.5 L6.5,15.5 L7.5,16.5 Z M7.5,16.5" id="Rectangle 3" fill="rgb(254,255,254)"/>
                <path d="M8.5,15.5 L5.5,12.5 L4.5,13.5 L7.5,16.5 L8.5,15.5 Z M8.5,15.5" id="Rectangle 3" fill="rgb(254,255,254)"/>
            </g>
        </g>
    </g>
</svg>