<?xml version="1.0" encoding="utf-8"?>
<!-- Generator: Adobe Illustrator 18.0.0, SVG Export Plug-In . SVG Version: 6.00 Build 0)  -->
<!DOCTYPE svg PUBLIC "-//W3C//DTD SVG 1.1//EN" "http://www.w3.org/Graphics/SVG/1.1/DTD/svg11.dtd">
<svg version="1.1" id="Layer_1" xmlns="http://www.w3.org/2000/svg" xmlns:xlink="http://www.w3.org/1999/xlink" x="0px" y="0px"
	 width="180.4px" height="180.4px" viewBox="0 0 180.4 180.4" enable-background="new 0 0 180.4 180.4" xml:space="preserve">
<path fill="#fff" d="M136.8,121.3H43.6c-3.1,0-5.7-2.5-5.7-5.7V59.2c0-3.1,2.5-5.7,5.7-5.7h93.2c3.1,0,5.7,2.5,5.7,5.7v56.4
	C142.4,118.8,139.9,121.3,136.8,121.3z M44.4,114.8h91.5V60.1H44.4V114.8z"/>
<g>
	<path fill="#fff" d="M63.1,96.6c0-1.2,0.6-1.9,1.9-1.9h3.3v-10c0-0.9,0-1.9,0-1.9h-0.1c0,0-0.3,0.7-0.7,1.1l-0.3,0.3
		c-0.9,0.8-1.8,0.8-2.6-0.1l-0.9-0.9c-0.8-0.9-0.8-1.8,0.1-2.6l4.2-3.9c0.7-0.6,1.3-0.9,2.3-0.9h1.9c1.2,0,1.9,0.6,1.9,1.9v17.2h3.3
		c1.2,0,1.9,0.6,1.9,1.9v1.3c0,1.2-0.6,1.9-1.9,1.9H65c-1.2,0-1.9-0.6-1.9-1.9V96.6z"/>
	<path fill="#fff" d="M81.1,87.7c0-6.9,2.2-12.4,9.1-12.4c6.8,0,9.1,5.5,9.1,12.4c0,6.9-2.2,12.5-9.1,12.5
		C83.3,100.2,81.1,94.6,81.1,87.7z M93.1,87.7c0-3.9-0.7-7-3-7c-2.3,0-3,3.1-3,7c0,3.9,0.7,7.1,3,7.1C92.5,94.8,93.1,91.7,93.1,87.7
		z"/>
	<path fill="#fff" d="M102.2,87.7c0-6.9,2.2-12.4,9.1-12.4s9.1,5.5,9.1,12.4c0,6.9-2.2,12.5-9.1,12.5S102.2,94.6,102.2,87.7z
		 M114.3,87.7c0-3.9-0.7-7-3-7c-2.3,0-3,3.1-3,7c0,3.9,0.7,7.1,3,7.1C113.6,94.8,114.3,91.7,114.3,87.7z"/>
</g>
</svg>
