<?xml version="1.0" encoding="utf-8"?>
<!-- Generator: Adobe Illustrator 18.0.0, SVG Export Plug-In . SVG Version: 6.00 Build 0)  -->
<!DOCTYPE svg PUBLIC "-//W3C//DTD SVG 1.1//EN" "http://www.w3.org/Graphics/SVG/1.1/DTD/svg11.dtd">
<svg version="1.1" xmlns="http://www.w3.org/2000/svg" xmlns:xlink="http://www.w3.org/1999/xlink" x="0px" y="0px" width="180.4px"
	 height="180.4px" viewBox="0 0 180.4 180.4" enable-background="new 0 0 180.4 180.4" xml:space="preserve">
<g id="Layer_2">
</g>
<g id="Layer_1">
	<g>
		<path fill="#fff" d="M120.9,136.7h-9.6c-3.1,0-5.7-2.5-5.7-5.7v-26.3h-1.4c-3.5,0-6.3-2.8-6.3-6.3V63.7
			c0-11.3,9.2-20.5,20.5-20.5h2.5c3.1,0,5.7,2.5,5.7,5.7v82.2C126.5,134.2,124,136.7,120.9,136.7z M112.6,129.7h6.9V50.2h-1.2
			c-7.4,0-13.5,6.1-13.5,13.5v34h7.8V129.7z"/>
		<path fill="#fff" d="M77.4,136.7h-9.6c-3.1,0-5.7-2.5-5.7-5.7v-39h-2.6c-3.5,0-6.3-2.8-6.3-6.3V46.6c0-1.6,1.3-2.8,2.8-2.8h1.3
			c1.6,0,2.8,1.3,2.8,2.8v38.5h8.9v44.6h6.9V85.1H85V46.6c0-1.6,1.3-2.8,2.8-2.8h1.3c1.6,0,2.8,1.3,2.8,2.8v39.2
			c0,3.5-2.8,6.3-6.3,6.3h-2.6v39C83.1,134.2,80.6,136.7,77.4,136.7z"/>
		<path fill="#fff" d="M70.6,71.2h-6.5V46.6c0-1.6,1.3-2.8,2.8-2.8h0.8c1.6,0,2.8,1.3,2.8,2.8V71.2z"/>
		<path fill="#fff" d="M81.2,71.2h-6.5V46.6c0-1.6,1.3-2.8,2.8-2.8h0.8c1.6,0,2.8,1.3,2.8,2.8V71.2z"/>
	</g>
</g>
</svg>
