<?xml version="1.0" encoding="utf-8"?>
<!-- Generator: Adobe Illustrator 18.0.0, SVG Export Plug-In . SVG Version: 6.00 Build 0)  -->
<!DOCTYPE svg PUBLIC "-//W3C//DTD SVG 1.1//EN" "http://www.w3.org/Graphics/SVG/1.1/DTD/svg11.dtd">
<svg version="1.1" id="Layer_1" xmlns="http://www.w3.org/2000/svg" xmlns:xlink="http://www.w3.org/1999/xlink" x="0px" y="0px"
	 width="180.4px" height="180.4px" viewBox="0 0 180.4 180.4" enable-background="new 0 0 180.4 180.4" xml:space="preserve">
<path fill="#fff" d="M97,42v-7.4c0-1.6-1.3-2.8-2.8-2.8h-1.3c-1.6,0-2.8,1.3-2.8,2.8V42c-25,1.7-45.2,21.8-46.7,47.1
	c-0.1,1.6,0.9,3,2.5,3.4c0.3,0.1,0.5,0.1,0.8,0.1c1.3,0,2.4-0.7,3-1.9c2.3-5.1,7.3-8.4,12.9-8.4c5.4,0,10.3,3.1,12.7,8
	c0.5,1.1,1.7,1.8,2.9,1.8s2.4-0.7,2.9-1.8c1.8-3.8,5.2-6.5,9.2-7.5v39.9c0,7.1-7,7.3-7.8,7.3c-2.1,0-4.7-0.7-6.3-2.7
	c-0.8-0.9-2.1-1.2-3.2-0.8l-1.3,0.5c-1.7,0.7-2.4,2.8-1.2,4.3c2.7,3.5,7.1,5.6,12,5.6c7.4,0,14.8-4.9,14.8-14.3V82.7
	c3.9,1,7.3,3.8,9.2,7.5c0.5,1.1,1.7,1.8,2.9,1.8s2.4-0.7,2.9-1.8c2.3-4.9,7.3-8,12.7-8c5.6,0,10.6,3.3,12.9,8.4
	c0.6,1.4,2.2,2.2,3.7,1.8c1.5-0.4,2.6-1.8,2.5-3.4C142.2,63.8,122,43.7,97,42z M124.7,75.8c-6,0-11.7,2.7-15.6,7.2
	c-3.9-4.5-9.6-7.2-15.6-7.2c-6,0-11.7,2.7-15.6,7.2c-3.9-4.5-9.6-7.2-15.6-7.2c-3.8,0-7.4,1-10.5,2.9C57.5,61,74.1,48.4,93.5,48.4
	c19.3,0,36,12.6,41.7,30.3C132.1,76.8,128.4,75.8,124.7,75.8z"/>
</svg>
