<?xml version="1.0" encoding="utf-8"?>
<!-- Generator: Adobe Illustrator 18.0.0, SVG Export Plug-In . SVG Version: 6.00 Build 0)  -->
<!DOCTYPE svg PUBLIC "-//W3C//DTD SVG 1.1//EN" "http://www.w3.org/Graphics/SVG/1.1/DTD/svg11.dtd">
<svg version="1.1" id="Layer_1" xmlns="http://www.w3.org/2000/svg" xmlns:xlink="http://www.w3.org/1999/xlink" x="0px" y="0px"
	 width="180.4px" height="180.4px" viewBox="0 0 180.4 180.4" enable-background="new 0 0 180.4 180.4" xml:space="preserve">
<g>
	<path fill="#fff" d="M90.2,38.2c-28.1,0-51,22.9-51,51s22.9,51,51,51s51-22.9,51-51S118.3,38.2,90.2,38.2z M90.2,133.2
		c-24.3,0-44-19.7-44-44c0-24.3,19.7-44,44-44s44,19.7,44,44C134.2,113.4,114.4,133.2,90.2,133.2z"/>
	<path fill="#fff" d="M97.8,79.4c0-4.2-3.4-7.7-7.7-7.7c-4.2,0-7.7,3.4-7.7,7.7c0,3,1.8,5.7,4.3,6.9l-3.7,18.4
		c-0.3,1.8,1,3.4,2.8,3.4h8.4c1.8,0,3.1-1.6,2.8-3.4l-3.7-18.4C96.1,85,97.8,82.4,97.8,79.4z"/>
</g>
</svg>
