<?xml version="1.0" encoding="utf-8"?>
<!-- Generator: Adobe Illustrator 18.0.0, SVG Export Plug-In . SVG Version: 6.00 Build 0)  -->
<!DOCTYPE svg PUBLIC "-//W3C//DTD SVG 1.1//EN" "http://www.w3.org/Graphics/SVG/1.1/DTD/svg11.dtd">
<svg version="1.1" id="Layer_1" xmlns="http://www.w3.org/2000/svg" xmlns:xlink="http://www.w3.org/1999/xlink" x="0px" y="0px"
	 width="180.4px" height="180.4px" viewBox="0 0 180.4 180.4" enable-background="new 0 0 180.4 180.4" xml:space="preserve">
<g>
	<path fill="#fff" d="M131.1,116.4H48.9V59h82.2v13.4c0,1.6,1.3,2.8,2.8,2.8h0.8c1.6,0,2.8-1.3,2.8-2.8V58.1
		c0-3.1-2.5-5.7-5.7-5.7H48.1c-3.1,0-5.7,2.5-5.7,5.7v59.1c0,3.1,2.5,5.7,5.7,5.7h83.8c3.1,0,5.7-2.5,5.7-5.7v-14.3
		c0-1.6-1.3-2.8-2.8-2.8h-0.8c-1.6,0-2.8,1.3-2.8,2.8V116.4z"/>
	<path fill="#fff" d="M71.9,74.9h-2.3c-1.3,0-2,0.7-2,2v21.8c0,1.3,0.7,2,2,2h2.3c1.3,0,2-0.7,2-2v-8.5h2.6l4.7,9.1
		c0.5,1,1.3,1.4,2.3,1.4h2.8c1.6,0,2.2-1,1.4-2.4l-6.1-11v-0.1l5.6-10c0.8-1.4,0.2-2.4-1.4-2.4h-2.5c-1.1,0-1.8,0.4-2.3,1.4
		l-4.6,8.5h-2.6v-8C73.9,75.6,73.2,74.9,71.9,74.9z"/>
	<path fill="#fff" d="M110.1,83c0-3.8-1.8-6.4-4.8-7.5c-1.1-0.4-2.4-0.6-5-0.6h-7c-1.3,0-2,0.7-2,2v21.8c0,1.3,0.7,2,2,2h2.3
		c1.3,0,2-0.7,2-2V92h3l3.8,7.3c0.5,1,1.3,1.4,2.3,1.4h2.7c1.6,0,2.2-1,1.4-2.4l-3.7-6.6c-0.6-1.1-1-1.6-1-1.6v-0.1
		C108.8,88.8,110.1,85.8,110.1,83z M100.3,86.6h-2.7v-6.3h2.1c1,0,1.8,0.1,2.4,0.4c1.2,0.5,1.5,1.4,1.5,2.7
		C103.6,85.5,102.4,86.6,100.3,86.6z"/>
	<path fill="#fff" d="M155.7,86.2l-6.8-7.1c-1.3-1.4-3.7-0.4-3.7,1.5v3.7h-21.1c-1.6,0-2.8,1.3-2.8,2.8v1.1
		c0,1.6,1.3,2.8,2.8,2.8h21.1v3.7c0,1.9,2.3,2.9,3.7,1.5l6.8-7.1C156.5,88.3,156.5,87.1,155.7,86.2z"/>
</g>
</svg>
