<?xml version="1.0" encoding="utf-8"?>
<!-- Generator: Adobe Illustrator 18.0.0, SVG Export Plug-In . SVG Version: 6.00 Build 0)  -->
<!DOCTYPE svg PUBLIC "-//W3C//DTD SVG 1.1//EN" "http://www.w3.org/Graphics/SVG/1.1/DTD/svg11.dtd">
<svg version="1.1" id="Layer_1" xmlns="http://www.w3.org/2000/svg" xmlns:xlink="http://www.w3.org/1999/xlink" x="0px" y="0px"
	 width="180.4px" height="180.4px" viewBox="0 0 180.4 180.4" enable-background="new 0 0 180.4 180.4" xml:space="preserve">
<path fill="#fff" d="M81.7,45.9c-6.9,0-12.5-5.6-12.5-12.5c0-6.9,5.6-12.5,12.5-12.5c6.9,0,12.5,5.6,12.5,12.5
	C94.2,40.3,88.6,45.9,81.7,45.9z M81.7,27.4c-3.3,0-6,2.7-6,6c0,3.3,2.7,6,6,6s6-2.7,6-6C87.7,30.1,85,27.4,81.7,27.4z"/>
<path fill="#fff" d="M106.4,135.1H101c-4,0-7.5-2.5-8.9-6.1c-1.2,0.1-2.4,0.1-3.2,0.1c-1,0-3.5,0-6.1-0.2c-1.4,3.6-4.9,6.2-9,6.2
	h-5.5c-5.3,0-9.6-4.3-9.6-9.6v-3.9c-12.1-7.4-18.9-18.6-18.9-31c0-19,11.3-32.6,31.9-38.2c4.6-1.3,9.5-1.9,14.6-1.9
	c9.6,0,17.4,2.2,20.6,3.2l10.9-5.4c3.5-1.8,7.7,0.5,8.2,4.5l1.5,14.4l0.8,1.1c1.1,1.4,3.9,5.8,4.5,6.7l0.3,0.5h1.8
	c5.5,0,9.9,4.4,9.9,9.9v12.1c0,5.5-4.4,9.9-9.9,9.9h-3.5c-1.9,3.3-6.6,9.9-15.2,15v3.1C116.1,130.7,111.8,135.1,106.4,135.1z
	 M98.3,121.1v4.3c0,1.5,1.2,2.6,2.6,2.6h5.5c1.5,0,2.6-1.2,2.6-2.6v-7.2l1.8-1c11-5.9,15-14.7,15.1-14.8l0.9-2.1l7.9,0
	c1.6,0,2.9-1.3,2.9-2.9V85.3c0-1.6-1.3-2.9-2.9-2.9h-5.7l-2.4-3.9c-0.8-1.4-3.3-5.2-4-6.1l-2.1-2.6l-1.6-14.5l-11.9,5.9l-1.4-0.6
	c-0.1,0-8.7-3.3-19.6-3.3c-4.5,0-8.8,0.6-12.7,1.6c-22.1,6.1-26.7,20.5-26.7,31.5c0,10.3,6.2,19.8,17.1,25.9l1.8,1v8
	c0,1.5,1.2,2.6,2.6,2.6h5.5c1.5,0,2.6-1.2,2.6-2.6v-4.8l4.2,0.9c1.6,0.3,4.9,0.6,8.2,0.6c2.3,0,4.4-0.1,5.5-0.3L98.3,121.1z"/>
<path fill="#fff" d="M65.9,76.3l-0.8-1.1c-1-1.4-0.7-3.3,0.8-4.2c2.8-1.7,6-3,9.7-4c3.2-0.9,6.8-1.3,10.5-1.3
	c3.5,0,6.7,0.4,9.3,0.9c1.6,0.3,2.6,1.9,2.2,3.4l-0.3,1.3c-0.3,1.5-1.8,2.4-3.3,2.1c-2.2-0.4-5-0.7-8-0.7c-3.1,0-6,0.4-8.6,1.1
	c-3,0.8-5.7,1.9-7.9,3.3C68.3,77.8,66.8,77.5,65.9,76.3z"/>
</svg>
