<?xml version="1.0" encoding="utf-8"?>
<!-- Generator: Adobe Illustrator 18.0.0, SVG Export Plug-In . SVG Version: 6.00 Build 0)  -->
<!DOCTYPE svg PUBLIC "-//W3C//DTD SVG 1.1//EN" "http://www.w3.org/Graphics/SVG/1.1/DTD/svg11.dtd">
<svg version="1.1" id="Layer_1" xmlns="http://www.w3.org/2000/svg" xmlns:xlink="http://www.w3.org/1999/xlink" x="0px" y="0px"
	 width="180.4px" height="180.4px" viewBox="0 0 180.4 180.4" enable-background="new 0 0 180.4 180.4" xml:space="preserve">
<path fill="#fff" d="M53.1,121.7c-6.5,0-11.6-2.2-15.3-6.7c-1.6-1.9-7.8-8.9-12.5-14.3c-2.6-3-1.4-7.7,2.3-9.1L39,87.5
	c1.4-0.5,2.9-0.4,4.2,0.1l13.5,5.9l12.1-4.5L52.5,68.4c-2.4-3.1-1.1-7.6,2.6-8.9l14-4.9c1.3-0.5,2.8-0.4,4.1,0.2l41.1,18
	c3.4-1.3,12.8-4.7,18.1-6.6l0.1,0c3.5-1.2,6.9-1.7,10-1.7c6.9,0,12,2.9,15.6,6.3c2.3,2.1,3.9,4.6,5,6.8c1.5,3,0,6.6-3.1,7.8
	c-19.7,7.3-88.2,32.6-95.6,34.7C60.1,121.1,56.4,121.7,53.1,121.7z M31.9,97.6c3.8,4.3,9.5,10.8,11.3,12.9c2.4,2.8,5.5,4.2,10,4.2
	c2.7,0,5.7-0.5,9.3-1.5c7.1-2,76.4-27.5,93.7-33.9c-2.2-3.7-6.6-7.9-13.6-7.9c-2.4,0-5,0.5-7.8,1.4c-6.6,2.4-19.3,7.1-19.3,7.1
	l-1.3,0.5L70.8,61.5l-11.7,4.1l21.2,26.7l-23.8,8.8l-15.6-6.8L31.9,97.6z"/>
</svg>
