<?xml version="1.0" encoding="utf-8"?>
<!-- Generator: Adobe Illustrator 18.0.0, SVG Export Plug-In . SVG Version: 6.00 Build 0)  -->
<!DOCTYPE svg PUBLIC "-//W3C//DTD SVG 1.1//EN" "http://www.w3.org/Graphics/SVG/1.1/DTD/svg11.dtd">
<svg version="1.1" id="Layer_1" xmlns="http://www.w3.org/2000/svg" xmlns:xlink="http://www.w3.org/1999/xlink" x="0px" y="0px"
	 width="180.4px" height="180.4px" viewBox="0 0 180.4 180.4" enable-background="new 0 0 180.4 180.4" xml:space="preserve">
<g>
	<path fill="#fff" d="M57.2,102l-1.5-1.1c-1.1-0.8-1.5-2.3-0.9-3.6c2.2-4.4,2.1-9.6-0.3-13.9c-0.7-1.2-0.4-2.7,0.7-3.6l1.5-1.1
		c1.4-1.1,3.4-0.7,4.2,0.8c3.7,6.6,3.9,14.7,0.4,21.5C60.6,102.5,58.6,103,57.2,102z"/>
	<path fill="#fff" d="M102.5,135l-1.5-1.1c-1.2-0.9-1.5-2.6-0.7-3.8c16.3-24.2,16.3-55.6,0-79.7c-0.8-1.3-0.5-3,0.7-3.8l1.5-1.1
		c1.3-0.9,3.1-0.6,4,0.7c18,26.7,18,61.4,0,88.1C105.6,135.6,103.8,135.9,102.5,135z"/>
	<path fill="#fff" d="M87.4,124l-1.5-1.1c-1.2-0.9-1.5-2.6-0.7-3.8c11.5-17.6,11.4-40.2-0.1-57.7c-0.8-1.3-0.5-2.9,0.7-3.8
		l1.5-1.1c1.3-1,3.2-0.6,4.1,0.7c13.3,20.1,13.3,45.9,0.1,66C90.6,124.6,88.7,124.9,87.4,124z"/>
	<path fill="#fff" d="M102.5,135l-1.5-1.1c-1.2-0.9-1.5-2.6-0.7-3.8c16.3-24.2,16.3-55.6,0-79.7c-0.8-1.3-0.5-3,0.7-3.8l1.5-1.1
		c1.3-0.9,3.1-0.6,4,0.7c18,26.7,18,61.4,0,88.1C105.6,135.6,103.8,135.9,102.5,135z"/>
	<path fill="#fff" d="M72.3,113l-1.5-1.1c-1.2-0.9-1.5-2.5-0.7-3.8c6.6-10.9,6.5-24.9-0.2-35.7c-0.8-1.3-0.5-2.9,0.7-3.8l1.5-1.1
		c1.3-1,3.2-0.7,4.1,0.7c8.4,13.3,8.5,30.6,0.3,44C75.6,113.6,73.7,114,72.3,113z"/>
</g>
</svg>
