<?xml version="1.0" encoding="utf-8"?>
<!-- Generator: Adobe Illustrator 18.0.0, SVG Export Plug-In . SVG Version: 6.00 Build 0)  -->
<!DOCTYPE svg PUBLIC "-//W3C//DTD SVG 1.1//EN" "http://www.w3.org/Graphics/SVG/1.1/DTD/svg11.dtd">
<svg version="1.1" id="Layer_1" xmlns="http://www.w3.org/2000/svg" xmlns:xlink="http://www.w3.org/1999/xlink" x="0px" y="0px"
	 width="180.4px" height="180.4px" viewBox="0 0 180.4 180.4" enable-background="new 0 0 180.4 180.4" xml:space="preserve">
<path fill="#002776" d="M64.4,138.7L64.4,138.7c-4.7,0-9.2-1.8-12.6-5.2l-9.6-9.6c-2.2-2.2-2.2-5.8,0-8L62,96.1c2.2-2.2,5.8-2.2,8,0
	L76,102c1.4,1.4,3.8,1.4,5.1,0L104,79.1c1.4-1.4,1.4-3.7,0-5.1L98.1,68c-2.2-2.2-2.2-5.8,0-8l19.8-19.8c2.2-2.2,5.8-2.2,8,0l9.6,9.6
	c6.1,6.1,6.9,15.8,1.9,22.8c-6.6,9.3-14.7,19.8-28.8,33.9c-14.1,14.1-24.7,22.2-33.9,28.8C71.6,137.5,68.1,138.7,64.4,138.7z
	 M48.1,119.9l8.7,8.7c2,2,4.7,3.1,7.6,3.1c2.2,0,4.4-0.7,6.2-2c9-6.4,19.2-14.3,33-28c13.8-13.8,21.6-24,28-33
	c3.1-4.3,2.6-10.1-1.2-13.8l-8.7-8.7L104,64l5,5c4.1,4.1,4.1,10.9,0,15L86,107c-2,2-4.7,3.1-7.5,3.1c-2.8,0-5.5-1.1-7.5-3.1l-5-5
	L48.1,119.9z"/>
</svg>
