<svg version="1.1" xmlns="http://www.w3.org/2000/svg" viewBox="0 0 236.816 236.816">
	<path fill="#333" d="M40.062,71.277h50c4.143,0,7.5-3.357,7.5-7.5c0-4.143-3.357-7.5-7.5-7.5h-50
		c-4.143,0-7.5,3.357-7.5,7.5C32.562,67.92,35.919,71.277,40.062,71.277z"/>
	<path fill="#333" d="M40.062,106.552h109.331c4.143,0,7.5-3.358,7.5-7.5c0-4.143-3.357-7.5-7.5-7.5H40.062
		c-4.143,0-7.5,3.357-7.5,7.5C32.562,103.194,35.919,106.552,40.062,106.552z"/>
	<path fill="#333" d="M188.288,159.449l8.434-9.807c1.801-2.094,1.563-5.25-0.531-7.051
		c-2.093-1.8-5.25-1.563-7.051,0.531l-8.433,9.807l-9.807-8.434c-2.093-1.8-5.249-1.563-7.051,0.531
		c-1.801,2.094-1.563,5.25,0.531,7.051l9.806,8.434l-8.433,9.806c-1.801,2.094-1.563,5.25,0.531,7.051
		c0.943,0.812,2.104,1.209,3.258,1.209c1.406,0,2.804-0.59,3.793-1.739l8.433-9.807l9.806,8.434
		c0.943,0.811,2.104,1.208,3.258,1.208c1.406,0,2.804-0.59,3.793-1.74c1.801-2.093,1.563-5.25-0.531-7.051L188.288,159.449z"/>
	<path fill="#333" d="M236.735,159.605c0-28.057-20.933-51.302-47.998-54.977V69.368c0-7.481-4.003-17.097-9.313-22.368
		L141.373,9.223C136.078,3.965,126.457,0,118.993,0H17.582c-9.649,0-17.5,7.851-17.5,17.5v201.816c0,9.649,7.851,17.5,17.5,17.5
		h153.655c9.649,0,17.5-7.851,17.5-17.5v-4.733C215.802,210.908,236.735,187.662,236.735,159.605z M167.479,56.277h-30.425
		c-1.355,0-2.5-1.145-2.5-2.5V23.59L167.479,56.277z M171.237,221.816H17.582c-1.356,0-2.5-1.145-2.5-2.5V17.5
		c0-1.355,1.144-2.5,2.5-2.5h101.411c0.181,0,0.37,0.01,0.562,0.021v38.756c0,9.649,7.851,17.5,17.5,17.5h36.683v33.352
		c-15.26,2.072-28.565,10.361-37.272,22.234c-0.243-0.023-0.49-0.037-0.74-0.037H40.062c-4.143,0-7.5,3.357-7.5,7.5
		c0,4.143,3.357,7.5,7.5,7.5h88.614c-1.895,5.586-2.938,11.561-2.938,17.779c0,8.012,1.72,15.624,4.788,22.509H99.393
		c-4.143,0-7.5,3.357-7.5,7.5c0,4.143,3.357,7.5,7.5,7.5h36.331c1.37,0,2.649-0.373,3.755-1.015
		c8.623,9.855,20.663,16.637,34.258,18.483v4.733C173.737,220.672,172.592,221.816,171.237,221.816z M181.237,200.104
		c-22.331,0-40.498-18.167-40.498-40.498c0-22.33,18.167-40.497,40.498-40.497c22.331,0,40.498,18.167,40.498,40.497
		C221.735,181.936,203.568,200.104,181.237,200.104z"/>
</svg>
