<?xml version="1.0" encoding="utf-8"?>
<!-- Generator: Adobe Illustrator 18.0.0, SVG Export Plug-In . SVG Version: 6.00 Build 0)  -->
<!DOCTYPE svg PUBLIC "-//W3C//DTD SVG 1.1//EN" "http://www.w3.org/Graphics/SVG/1.1/DTD/svg11.dtd">
<svg version="1.1" xmlns="http://www.w3.org/2000/svg" xmlns:xlink="http://www.w3.org/1999/xlink" x="0px" y="0px" width="180.4px"
	 height="180.4px" viewBox="0 0 180.4 180.4" enable-background="new 0 0 180.4 180.4" xml:space="preserve">
<g id="sirkel">
</g>
<g id="Layer_3">
</g>
<g id="Layer_1">
	<g>
		<path fill="#002776" d="M126.6,131.9H53.8c-3.1,0-5.7-2.5-5.7-5.7V58.1c0-3.1,2.5-5.7,5.7-5.7h72.8c3.1,0,5.7,2.5,5.7,5.7v68.1
			C132.3,129.4,129.7,131.9,126.6,131.9z M55.1,124.9h70.2V59.5H55.1V124.9z"/>
		<rect x="50.7" y="75.3" fill="#002776" width="79" height="6"/>
		<path fill="#002776" d="M72.5,67.8h-1.3c-1.6,0-2.8-1.3-2.8-2.8V46.2c0-1.6,1.3-2.8,2.8-2.8h1.3c1.6,0,2.8,1.3,2.8,2.8V65
			C75.3,66.5,74.1,67.8,72.5,67.8z"/>
		<path fill="#002776" d="M109.2,67.8h-1.3c-1.6,0-2.8-1.3-2.8-2.8V46.2c0-1.6,1.3-2.8,2.8-2.8h1.3c1.6,0,2.8,1.3,2.8,2.8V65
			C112.1,66.5,110.8,67.8,109.2,67.8z"/>
		<g>
			<path fill="#002776" d="M82.6,110.1c0-1.2,0.6-1.8,1.8-1.8h3.2v-9.8c0-0.9,0-1.8,0-1.8h-0.1c0,0-0.3,0.7-0.7,1.1L86.6,98
				c-0.9,0.8-1.7,0.8-2.5-0.1l-0.9-0.9c-0.8-0.9-0.8-1.7,0.1-2.6l4.1-3.8c0.7-0.6,1.3-0.9,2.2-0.9h1.9c1.2,0,1.8,0.6,1.8,1.8v16.8
				h3.2c1.2,0,1.8,0.6,1.8,1.8v1.3c0,1.2-0.6,1.8-1.8,1.8H84.4c-1.2,0-1.8-0.6-1.8-1.8V110.1z"/>
		</g>
	</g>
</g>
<g id="Layer_4">
</g>
</svg>
