<?xml version="1.0" encoding="utf-8"?>
<!-- Generator: Adobe Illustrator 18.0.0, SVG Export Plug-In . SVG Version: 6.00 Build 0)  -->
<!DOCTYPE svg PUBLIC "-//W3C//DTD SVG 1.1//EN" "http://www.w3.org/Graphics/SVG/1.1/DTD/svg11.dtd">
<svg version="1.1" xmlns="http://www.w3.org/2000/svg" xmlns:xlink="http://www.w3.org/1999/xlink" x="0px" y="0px" width="180.4px"
	 height="180.4px" viewBox="0 0 180.4 180.4" enable-background="new 0 0 180.4 180.4" xml:space="preserve">
<g id="sirkel">
</g>
<g id="Layer_3">
</g>
<g id="Layer_1">
</g>
<g id="Layer_4">
	<path fill="#002776" d="M116.1,57.7c0-1.9-0.9-2.8-2.8-2.8h-1.6c-1.9,0-2.8,0.9-2.8,2.8v10.2v0.5h-0.5h-9.1c-1.9,0-2.8,0.9-2.8,2.8
		v1.2c0,1.9,0.9,2.8,2.8,2.8h9.1h0.5v0.5v10.1c0,1.9,0.9,2.8,2.8,2.8h1.6c1.9,0,2.8-0.9,2.8-2.8V75.8v-0.5h0.5h9.1
		c1.9,0,2.8-0.9,2.8-2.8v-1.2c0-1.9-0.9-2.8-2.8-2.8h-9.1h-0.5v-0.5V57.7z"/>
	<path fill="#002776" d="M94.8,140.9c-4.1,0-7.9-1.6-10.8-4.4c-6.8-6.7-14.4-14.7-24.2-28.3c-9.8-13.5-15-23.3-19.2-31.8
		c-3.3-6.7-1.3-14.9,4.8-19.3L56,49.4c1.6-1.1,3.8-0.8,4.9,0.8L76.6,72c0.5,0.8,0.8,1.7,0.6,2.6c-0.1,0.9-0.7,1.7-1.4,2.3l-7.1,5.1
		c-0.5,0.4-0.9,0.9-1,1.6c-0.1,0.6,0,1.3,0.4,1.8L84,107.4c0.5,0.6,1.2,1,2,1c0.4,0,0.9-0.1,1.4-0.5l7.1-5.1
		c1.6-1.1,3.8-0.8,4.9,0.8l15.8,21.8c1.1,1.6,0.8,3.8-0.8,4.9l-10.6,7.7C101.1,139.9,98,140.9,94.8,140.9z M57.2,57.1l-7.8,5.6
		c-3.3,2.4-4.4,6.8-2.6,10.5c4.1,8.2,9.2,17.7,18.7,30.8c9.5,13.1,16.9,20.9,23.4,27.4c1.6,1.6,3.7,2.4,5.9,2.4
		c1.8,0,3.5-0.5,4.9-1.6l7.8-5.6l-11.7-16.2l-4.3,3.1c-1.6,1.2-3.5,1.8-5.5,1.8c-3,0-5.9-1.5-7.7-3.9L62.5,89.6
		c-1.5-2-2.1-4.5-1.7-7c0.4-2.5,1.7-4.7,3.8-6.1l4.3-3.1L57.2,57.1z"/>
</g>
</svg>
