<?xml version="1.0" encoding="utf-8"?>
<!-- Generator: Adobe Illustrator 18.0.0, SVG Export Plug-In . SVG Version: 6.00 Build 0)  -->
<!DOCTYPE svg PUBLIC "-//W3C//DTD SVG 1.1//EN" "http://www.w3.org/Graphics/SVG/1.1/DTD/svg11.dtd">
<svg version="1.1" id="Layer_1" xmlns="http://www.w3.org/2000/svg" xmlns:xlink="http://www.w3.org/1999/xlink" x="0px" y="0px"
	 width="180.4px" height="180.4px" viewBox="0 0 180.4 180.4" enable-background="new 0 0 180.4 180.4" xml:space="preserve">
<g>
	<circle fill="#002776" cx="89.7" cy="76" r="7.1"/>
	<path fill="#002776" d="M94.4,135.5c-2.2,3.3-7.2,3.3-9.4,0c-0.1-0.2-0.2-0.4-0.3-0.5c-6.7-10.1-25.4-39.5-27.2-55.8
		c-1.2-11.3,1.2-20.4,7.3-27.2c6.6-7.4,17.3-10.7,24.9-10.7c7.6,0,18.3,3.3,24.9,10.7c6.1,6.7,8.5,15.9,7.3,27.2
		c-1.8,16.5-20.8,46.3-27.4,56.1C94.5,135.4,94.4,135.5,94.4,135.5z M89.7,48.4c-5.9,0-14.5,2.6-19.7,8.3
		c-4.7,5.2-6.5,12.5-5.6,21.8c0.8,7.1,5.7,18.7,14.4,33.8c4.1,7.2,8.2,13.6,10.9,17.7c9.5-14.3,23.9-38.9,25.2-51.4
		c1-9.2-0.9-16.6-5.6-21.8C104.2,51,95.6,48.4,89.7,48.4z"/>
</g>
</svg>
