<?xml version="1.0" encoding="utf-8"?>
<!-- Generator: Adobe Illustrator 18.0.0, SVG Export Plug-In . SVG Version: 6.00 Build 0)  -->
<!DOCTYPE svg PUBLIC "-//W3C//DTD SVG 1.1//EN" "http://www.w3.org/Graphics/SVG/1.1/DTD/svg11.dtd">
<svg version="1.1" xmlns="http://www.w3.org/2000/svg" xmlns:xlink="http://www.w3.org/1999/xlink" x="0px" y="0px" width="180.4px"
	 height="180.4px" viewBox="0 0 180.4 180.4" enable-background="new 0 0 180.4 180.4" xml:space="preserve">
<g id="sirkel">
</g>
<g id="Layer_3">
</g>
<g id="Layer_1">
</g>
<g id="Layer_4">
	<g>
		<path fill="#002776" d="M126,121.7H54.8c-3.1,0-5.7-2.5-5.7-5.7V95c0-1.6,1.3-2.8,2.8-2.8h1.3c1.6,0,2.8,1.3,2.8,2.8v19.7h68.5V95
			c0-1.6,1.3-2.8,2.8-2.8h1.3c1.6,0,2.8,1.3,2.8,2.8V116C131.7,119.2,129.2,121.7,126,121.7z"/>
		<path fill="#002776" d="M100,63.4L91.6,55c-1.1-1.1-2.9-1.1-4,0l-8.4,8.4c-1.8,1.8-0.5,4.8,2,4.8H98
			C100.5,68.3,101.8,65.2,100,63.4z"/>
		<path fill="#002776" d="M90.3,103.4H89c-1.6,0-2.8-1.3-2.8-2.8V60.9c0-1.6,1.3-2.8,2.8-2.8h1.3c1.6,0,2.8,1.3,2.8,2.8v39.6
			C93.1,102.1,91.9,103.4,90.3,103.4z"/>
	</g>
</g>
</svg>
