<?xml version="1.0" encoding="UTF-8" standalone="no"?>
<svg width="29px" height="19px" viewBox="0 0 29 19" version="1.1" xmlns="http://www.w3.org/2000/svg" xmlns:xlink="http://www.w3.org/1999/xlink" xmlns:sketch="http://www.bohemiancoding.com/sketch/ns">
    <!-- Generator: Sketch 3.0.4 (8053) - http://www.bohemiancoding.com/sketch -->
    <title>Fill 1 + Fill 2</title>
    <desc>Created with Sketch.</desc>
    <defs></defs>
    <g id="Page-1" stroke="none" stroke-width="1" fill="none" fill-rule="evenodd" sketch:type="MSPage">
        <g id="knapper" sketch:type="MSArtboardGroup" transform="translate(-175.000000, -1609.000000)" fill="#D8D8D8">
            <g id="Fill-1-+-Fill-2" sketch:type="MSLayerGroup" transform="translate(175.000000, 1610.062500)">
                <path d="M25.2261344,16.8194105 C24.4408052,16.8194105 23.6539362,16.5128293 23.0518505,15.9012392 L12.1480939,4.80142859 C10.9439225,3.5735317 10.9408428,1.5831124 12.1419345,0.353643292 C13.3430261,-0.877398027 15.2909505,-0.878970239 16.4966617,0.347354447 L27.4019581,11.4471651 C28.6061295,12.6734898 28.6092092,14.6654813 27.4065777,15.8949504 C26.8060319,16.5112571 26.0160831,16.8194105 25.2261344,16.8194105" id="Fill-1" sketch:type="MSShapeGroup" transform="translate(19.774929, 8.124197) rotate(90.000000) translate(-19.774929, -8.124197) "></path>
                <path d="M3.45057451,16.8190186 C2.66216562,16.8190186 1.87221687,16.509293 1.27013117,15.8945584 C0.0690395054,14.6635171 0.0721192276,12.6730978 1.27629062,11.4467731 L12.1800472,0.346962526 C13.3857584,-0.87936216 15.3336827,-0.876217738 16.5347744,0.354823582 C17.7374059,1.58429269 17.7343262,3.57471199 16.5301548,4.80103667 L5.6248584,15.9008473 C5.02431256,16.5124374 4.23744354,16.8190186 3.45057451,16.8190186" id="Fill-2" sketch:type="MSShapeGroup" transform="translate(8.903126, 8.124197) rotate(90.000000) translate(-8.903126, -8.124197) "></path>
            </g>
        </g>
    </g>
</svg>