<?xml version="1.0" encoding="utf-8"?>
<!-- Generator: Adobe Illustrator 18.0.0, SVG Export Plug-In . SVG Version: 6.00 Build 0)  -->
<!DOCTYPE svg PUBLIC "-//W3C//DTD SVG 1.1//EN" "http://www.w3.org/Graphics/SVG/1.1/DTD/svg11.dtd">
<svg version="1.1" id="Layer_1" xmlns="http://www.w3.org/2000/svg" xmlns:xlink="http://www.w3.org/1999/xlink" x="0px" y="0px"
	 width="180.4px" height="180.4px" viewBox="0 0 180.4 180.4" enable-background="new 0 0 180.4 180.4" xml:space="preserve">
<path fill="#fff" d="M131.4,72.2c5.7,0,10.3,4.6,10.3,10.3v15.3c0,5.7-4.6,10.3-10.2,10.3H125v6.5v6.4l-13.5-11.4l-1.8-1.5h-2.4
	h-5.1c-5.7,0-10.3-4.6-10.3-10.3V82.5c0-5.7,4.6-10.3,10.3-10.3H131.4 M131.4,65.7h-29.2c-9.3,0-16.8,7.5-16.8,16.8v15.3
	c0,9.3,7.5,16.8,16.8,16.8h5.1l17.2,14.5c0.9,0.8,1.9,1.1,2.9,1.1c2.2,0,4.1-1.6,4.1-3.4v-12.2c9.3,0,16.7-7.5,16.7-16.8V82.5
	C148.2,73.2,140.7,65.7,131.4,65.7L131.4,65.7z"/>
<path fill="#fff" d="M78.2,110.1c0-1.6-1.3-2.8-2.8-2.8h-2.7h-2.6l-2,1.7l-12,10.1l0-4.8l0-7h-7c-10.3,0-10.9-11.5-10.9-13.9v-27
	c0-7.7,6.2-13.9,13.9-13.9h34.4c3.4,0,6.6,1.3,9,3.3c0.5,0.4,1.1,0.6,1.8,0.6h2c2.5,0,3.8-3.1,2-4.8c-3.8-3.8-9-6.1-14.8-6.1H52.2
	c-11.5,0-20.9,9.3-20.9,20.9v27c0,11.5,6.3,20.9,17.9,20.9l0,12.8c0.1,1.9,1.7,3.2,3.4,3.2c0.7,0,1.4-0.2,2-0.8l18.1-15.3h2.7
	c1.6,0,2.8-1.3,2.8-2.8V110.1z"/>
</svg>
