<?xml version="1.0" encoding="utf-8"?>
<!-- Generator: Adobe Illustrator 18.0.0, SVG Export Plug-In . SVG Version: 6.00 Build 0)  -->
<!DOCTYPE svg PUBLIC "-//W3C//DTD SVG 1.1//EN" "http://www.w3.org/Graphics/SVG/1.1/DTD/svg11.dtd">
<svg version="1.1" id="Layer_1" xmlns="http://www.w3.org/2000/svg" xmlns:xlink="http://www.w3.org/1999/xlink" x="0px" y="0px"
	 width="180.4px" height="180.4px" viewBox="0 0 180.4 180.4" enable-background="new 0 0 180.4 180.4" xml:space="preserve">
<g>
	<g>
		<path fill="#fff" d="M46.8,67.2c0,2.6,2.3,5,5,5h76c2.6,0,5-2.3,5-5s-2.3-5-5-5h-76C49.1,62.3,46.8,64.6,46.8,67.2
			C46.8,67.2,46.8,64.6,46.8,67.2z"/>
	</g>
	<g>
		<path fill="#fff" d="M46.8,90.4c0,2.6,2.3,5,5,5h76c2.6,0,5-2.3,5-5s-2.3-5-5-5h-76C49.1,85.4,46.8,87.7,46.8,90.4
			C46.8,90.4,46.8,87.7,46.8,90.4z"/>
	</g>
	<g>
		<path fill="#fff" d="M46.8,113.2c0,2.6,2.3,5,5,5h76c2.6,0,5-2.3,5-5c0-2.6-2.3-5-5-5h-76C49.1,108.2,46.8,110.5,46.8,113.2
			C46.8,113.2,46.8,110.5,46.8,113.2z"/>
	</g>
</g>
</svg>
