<?xml version="1.0" encoding="utf-8"?>
<!-- Generator: Adobe Illustrator 18.0.0, SVG Export Plug-In . SVG Version: 6.00 Build 0)  -->
<!DOCTYPE svg PUBLIC "-//W3C//DTD SVG 1.1//EN" "http://www.w3.org/Graphics/SVG/1.1/DTD/svg11.dtd">
<svg version="1.1" id="Layer_1" xmlns="http://www.w3.org/2000/svg" xmlns:xlink="http://www.w3.org/1999/xlink" x="0px" y="0px"
	 width="180.4px" height="180.4px" viewBox="0 0 180.4 180.4" enable-background="new 0 0 180.4 180.4" xml:space="preserve">
<g>
	<path fill="#fff" d="M115.9,78.2l-7.9-5.6c-1.7-1.2-3.9,0.5-3.2,2.4l0.4,1.1H85.5c-2,0-3.3,1.9-2.7,3.8l0.5,1.3
		c0.4,1.1,1.5,1.9,2.7,1.9h21.7l1.1,3.1c0.6,1.6,2.8,1.9,3.7,0.5l3.9-5.6C117.1,80.2,116.9,78.9,115.9,78.2z"/>
	<path fill="#fff" d="M149.1,115.4l-21.9-59.3c-0.8-2.2-2.9-3.7-5.3-3.7H59.6c-2.4,0-4.5,1.5-5.3,3.7L34,111
		c-0.7,1.9,0.7,3.8,2.7,3.8h1.4c1.2,0,2.2-0.7,2.7-1.9L58,66.3l18.9,51c0.4,1.1,1.5,1.9,2.7,1.9h1.4c2,0,3.3-2,2.7-3.8l-3.4-9.1h58
		l4.1,11.1c0.4,1.1,1.5,1.9,2.7,1.9h1.4C148.4,119.2,149.8,117.3,149.1,115.4z M77.6,99.3L62.9,59.4h58l14.7,39.9H77.6z"/>
</g>
</svg>
