<svg  version="1.1" xmlns="http://www.w3.org/2000/svg" xmlns:sketch="http://www.bohemiancoding.com/sketch/ns">
    <g id="Løsningsbeskrivelse" stroke="none" stroke-width="1" fill="none" fill-rule="evenodd" sketch:type="MSPage">
        <g id="tablet" sketch:type="MSArtboardGroup">
            <g id="Imported-Layers" sketch:type="MSLayerGroup">
                <path d="M180.644439,20.0714286 C180.644439,31.0221429 171.753261,39.8992857 160.784518,39.8992857 C149.81649,39.8992857 140.924597,31.0221429 140.924597,20.0714286 C140.924597,9.12 149.81649,0.242857143 160.784518,0.242857143 C171.753261,0.242857143 180.644439,9.12 180.644439,20.0714286" id="Fill-1" fill="#F00000" sketch:type="MSShapeGroup"></path>
                <path d="M154.767162,1.17214286 C146.741636,3.71714286 140.924597,11.215 140.924597,20.0714286 C140.924597,22.0142857 141.210047,23.89 141.731585,25.665 C145.866684,31.7714286 154.80651,33.98 162.987996,30.5235714 C172.108107,26.67 176.828415,17.2385714 173.531067,9.45857143 C170.677992,2.72714286 162.757632,-0.558571429 154.767162,1.17214286" id="Fill-2" fill="#B40000" sketch:type="MSShapeGroup"></path>
                <path d="M165.139249,7.93857143 L160.52196,7.93857143 C160.192154,7.93857143 160.006862,8.01214286 159.712111,8.12214286 L153.754134,11.1842857 C153.387126,11.3321429 153.239751,11.5514286 153.239751,11.92 L153.239751,15.2557143 C153.239751,15.6478571 153.558826,15.965 153.950158,15.965 L157.764036,15.965 L157.764036,31.9564286 C159.50464,31.715 161.262415,31.2521429 162.987996,30.5235714 C164.008178,30.0921429 164.970411,29.5878571 165.875411,29.0271429 L165.875411,8.67285714 C165.875411,8.26785714 165.545605,7.93857143 165.139249,7.93857143" id="Fill-3" fill="#FFFFFF" sketch:type="MSShapeGroup"></path>
            </g>
        </g>
    </g>
</svg>