<?xml version="1.0" encoding="utf-8"?>
<!-- Generator: Adobe Illustrator 18.0.0, SVG Export Plug-In . SVG Version: 6.00 Build 0)  -->
<!DOCTYPE svg PUBLIC "-//W3C//DTD SVG 1.1//EN" "http://www.w3.org/Graphics/SVG/1.1/DTD/svg11.dtd">
<svg version="1.1" xmlns="http://www.w3.org/2000/svg" xmlns:xlink="http://www.w3.org/1999/xlink" x="0px" y="0px" width="180.4px"
	 height="180.4px" viewBox="0 0 180.4 180.4" enable-background="new 0 0 180.4 180.4" xml:space="preserve">
<g id="Layer_2">
</g>
<g id="Layer_1">
	<g>
		<path fill="#fff" d="M75.2,63.6c-1.3,1.6-3.7,1.3-4.7-0.5c-0.6-1.1-1.1-2.5-1.2-4.1c-0.1-2,0.4-5.1,3.4-8.3
			c2.1-2.3,1.8-4.5,1.1-5.9c-0.5-1.1-0.3-2.5,0.6-3.3l0.6-0.6c1.4-1.3,3.6-0.9,4.5,0.8c1.7,3.5,2.4,8.6-2.1,13.5
			c-1.1,1.2-1.7,2.4-1.6,3.4c0,0.5,0.2,0.9,0.4,1.3c0.5,1,0.3,2.2-0.4,3L75.2,63.6z"/>
		<path fill="#fff" d="M88.9,63.6c-1.3,1.6-3.7,1.3-4.7-0.5c-0.6-1.1-1.1-2.5-1.2-4.1c-0.1-2,0.4-5.1,3.4-8.3
			c2.1-2.3,1.8-4.5,1.1-5.9c-0.5-1.1-0.3-2.5,0.6-3.3l0.6-0.6c1.4-1.3,3.6-0.9,4.5,0.8c1.7,3.5,2.4,8.6-2.1,13.5
			c-1.1,1.2-1.7,2.4-1.6,3.4c0,0.5,0.2,0.9,0.4,1.3c0.5,1,0.3,2.2-0.4,3L88.9,63.6z"/>
		<path fill="#fff" d="M102.7,63.6c-1.3,1.6-3.7,1.3-4.7-0.5c-0.6-1.1-1.1-2.5-1.2-4.1c-0.1-2,0.4-5.1,3.4-8.3
			c2.1-2.3,1.8-4.5,1.1-5.9c-0.5-1.1-0.3-2.5,0.6-3.3l0.6-0.6c1.4-1.3,3.6-0.9,4.5,0.8c1.7,3.5,2.4,8.6-2.1,13.5
			c-1.1,1.2-1.7,2.4-1.6,3.4c0,0.5,0.2,0.9,0.4,1.3c0.5,1,0.3,2.2-0.4,3L102.7,63.6z"/>
		<path fill="#fff" d="M119.7,130.2H56.4c-1.6,0-2.8-1.3-2.8-2.8v-1.3c0-1.6,1.3-2.8,2.8-2.8h63.3c1.6,0,2.8,1.3,2.8,2.8v1.3
			C122.6,129,121.3,130.2,119.7,130.2z"/>
		<path fill="#fff" d="M120.6,104.3l-2-6.7c3-0.9,12.7-4.5,12.7-13.4c0-2.8-1-5.1-2.8-6.5c-2-1.5-4.8-1.8-7.9-0.9l-2-6.7
			c5.2-1.6,10.3-0.9,14.1,1.9c3.6,2.7,5.6,7,5.6,12.1C138.3,93.3,131.5,101,120.6,104.3z"/>
		<path fill="#fff" d="M108,120.7H68.2c-1.7,0-3.3-0.8-4.4-2.1c-0.3-0.3-0.5-0.6-0.6-0.8c-6.8-8.6-10.1-17.1-10.1-26.2V75.2
			c0-3.1,2.5-5.7,5.7-5.7h64.3v22.2c0,9-3.3,17.5-10,26.1c-0.1,0.2-0.4,0.5-0.7,0.9C111.3,120,109.7,120.7,108,120.7z M68.8,113.7
			h38.6c5.9-7.3,8.7-14.5,8.7-22V76.6h-56v15.2C60.1,99.2,62.9,106.4,68.8,113.7z"/>
	</g>
</g>
</svg>
