<svg version="1.1" xmlns="http://www.w3.org/2000/svg" viewBox="0 0 95.5 95.5">
<g>
	<g>
		<path fill="#333" d="M39.101,0H2C0.896,0,0,0.896,0,2v37.102c0,1.104,0.896,2,2,2h37.101c1.104,0,2-0.896,2-2V2
			C41.101,0.896,40.205,0,39.101,0z"/>
		<path fill="#333" d="M93.5,0H56.398c-1.104,0-2,0.896-2,2v37.102c0,1.104,0.896,2,2,2H93.5c1.104,0,2-0.896,2-2V2C95.5,0.896,94.605,0,93.5,0z
			"/>
		<path fill="#333" d="M39.101,54.398H2c-1.104,0-2,0.896-2,2V93.5c0,1.104,0.896,2,2,2h37.101c1.104,0,2-0.896,2-2V56.398
			C41.101,55.295,40.205,54.398,39.101,54.398z"/>
		<path fill="#333" d="M93.5,54.398H56.398c-1.104,0-2,0.896-2,2V93.5c0,1.104,0.896,2,2,2H93.5c1.104,0,2-0.896,2-2V56.398
			C95.5,55.295,94.605,54.398,93.5,54.398z"/>
	</g>
</g>
</svg>
