<?xml version="1.0" encoding="utf-8"?>
<!-- Generator: Adobe Illustrator 18.0.0, SVG Export Plug-In . SVG Version: 6.00 Build 0)  -->
<!DOCTYPE svg PUBLIC "-//W3C//DTD SVG 1.1//EN" "http://www.w3.org/Graphics/SVG/1.1/DTD/svg11.dtd">
<svg version="1.1" id="Layer_1" xmlns="http://www.w3.org/2000/svg" xmlns:xlink="http://www.w3.org/1999/xlink" x="0px" y="0px"
	 width="180.4px" height="180.4px" viewBox="0 0 180.4 180.4" enable-background="new 0 0 180.4 180.4" xml:space="preserve">
<g>
    <path xmlns="http://www.w3.org/2000/svg" fill="#002776" d="M84.6,127.1c-2.7,0-5.3-1.3-6.9-3.5L55.9,93.3c-1.3-1.7-1.4-4-0.5-5.9c1-1.9,2.9-3.1,5.1-3.1h2.9   c1.8,0,3.6,0.9,4.6,2.4l16.1,22.4l35.4-60.9c0.9-1.6,2.6-2.7,4.6-2.9l0.3,0h2.7c2.1,0,3.9,1.1,5,2.9c1,1.8,1,3.9,0,5.7l-40.1,69   C90.4,125.5,87.6,127.1,84.6,127.1z"/>
</g>
</svg>
