<?xml version="1.0" encoding="utf-8"?>
<!-- Generator: Adobe Illustrator 18.0.0, SVG Export Plug-In . SVG Version: 6.00 Build 0)  -->
<!DOCTYPE svg PUBLIC "-//W3C//DTD SVG 1.1//EN" "http://www.w3.org/Graphics/SVG/1.1/DTD/svg11.dtd">
<svg version="1.1" xmlns="http://www.w3.org/2000/svg" xmlns:xlink="http://www.w3.org/1999/xlink" x="0px" y="0px" width="180.4px"
	 height="180.4px" viewBox="0 0 180.4 180.4" enable-background="new 0 0 180.4 180.4" xml:space="preserve">
<g id="sirkel">
</g>
<g id="Layer_3">
</g>
<g id="Layer_1">
</g>
<g id="Layer_4">
	<g>
		<path fill="#002776" d="M122.4,126.4H58.4c-3.1,0-5.7-2.5-5.7-5.7V56.6c0-3.1,2.5-5.7,5.7-5.7h28.8c1.8,0,3.2,1.4,3.2,3.2v0.6
			c0,1.8-1.4,3.2-3.2,3.2H59.7v61.4h61.4V91.9c0-1.8,1.4-3.2,3.2-3.2h0.6c1.8,0,3.2,1.4,3.2,3.2v28.8
			C128.1,123.8,125.6,126.4,122.4,126.4z"/>
		<path fill="#002776" d="M89.6,91.4L89.2,91c-1.3-1.3-1.3-3.3,0-4.5L120,55.7l4.9,4.9L94.2,91.4C92.9,92.7,90.9,92.7,89.6,91.4z"/>
		<path fill="#002776" d="M127.6,66.3L127.4,56c0-1.5-1.3-2.7-2.8-2.8L114.3,53c-2.6-0.1-3.9,3-2.1,4.8l10.5,10.5
			C124.6,70.2,127.7,68.9,127.6,66.3z"/>
	</g>
</g>
</svg>
