<?xml version="1.0" encoding="utf-8"?>
<!-- Generator: Adobe Illustrator 18.0.0, SVG Export Plug-In . SVG Version: 6.00 Build 0)  -->
<!DOCTYPE svg PUBLIC "-//W3C//DTD SVG 1.1//EN" "http://www.w3.org/Graphics/SVG/1.1/DTD/svg11.dtd">
<svg version="1.1" xmlns="http://www.w3.org/2000/svg" xmlns:xlink="http://www.w3.org/1999/xlink" x="0px" y="0px" width="180.4px"
	 height="180.4px" viewBox="0 0 180.4 180.4" enable-background="new 0 0 180.4 180.4" xml:space="preserve">
<g id="Layer_2">
</g>
<g id="Layer_1">
	<g>
		<g>
			<path fill="#002776" d="M90.2,92.1l-1.6-0.8c-1.7-0.9-6.1-3.2-10.4-6.6c-5.2-4-11.5-10.4-11.5-17.6V44.2h7v22.8
				c0,3.4,3.1,7.7,8.8,12.1c2.9,2.2,5.8,4,7.8,5.1c1.9-1.1,4.9-2.8,7.8-5.1c5.7-4.3,8.8-8.6,8.8-12.1V44.2h7v22.8
				c0,7.3-6.3,13.6-11.5,17.6c-4.4,3.4-8.8,5.7-10.4,6.6L90.2,92.1z"/>
		</g>
		<g>
			<path fill="#002776" d="M113.7,132.1h-7v-22.8c0-3.4-3.1-7.7-8.8-12.1c-2.9-2.2-5.8-4-7.8-5.1c-1.9,1.1-4.9,2.8-7.8,5.1
				c-5.7,4.3-8.8,8.6-8.8,12.1v22.8h-7v-22.8c0-5.8,3.9-11.8,11.5-17.6c4.4-3.4,8.8-5.7,10.4-6.6l1.6-0.8l1.6,0.8
				c1.7,0.9,6.1,3.2,10.4,6.6c7.6,5.9,11.5,11.8,11.5,17.6V132.1z"/>
		</g>
		<path fill="#002776" d="M119.8,47.5H60.6c-1.6,0-2.8-1.3-2.8-2.8v-0.8c0-1.6,1.3-2.8,2.8-2.8h59.2c1.6,0,2.8,1.3,2.8,2.8v0.8
			C122.6,46.2,121.3,47.5,119.8,47.5z"/>
		<path fill="#002776" d="M119.8,135.4H60.6c-1.6,0-2.8-1.3-2.8-2.8v-0.8c0-1.6,1.3-2.8,2.8-2.8h59.2c1.6,0,2.8,1.3,2.8,2.8v0.8
			C122.6,134.1,121.3,135.4,119.8,135.4z"/>
		<rect x="70.2" y="117.4" fill="#002776" width="40.1" height="6.5"/>
		<rect x="71.9" y="63" fill="#002776" width="35.6" height="6.5"/>
	</g>
</g>
</svg>
