<?xml version="1.0" encoding="utf-8"?>
<!-- Generator: Adobe Illustrator 18.0.0, SVG Export Plug-In . SVG Version: 6.00 Build 0)  -->
<!DOCTYPE svg PUBLIC "-//W3C//DTD SVG 1.1//EN" "http://www.w3.org/Graphics/SVG/1.1/DTD/svg11.dtd">
<svg version="1.1" id="Layer_1" xmlns="http://www.w3.org/2000/svg" xmlns:xlink="http://www.w3.org/1999/xlink" x="0px" y="0px"
	 width="180.4px" height="180.4px" viewBox="0 0 180.4 180.4" enable-background="new 0 0 180.4 180.4" xml:space="preserve">
<path fill="#002776" d="M102.7,59.2c-6.3,0-11.3-5.1-11.3-11.3s5.1-11.3,11.3-11.3S114,41.6,114,47.9S109,59.2,102.7,59.2z
	 M102.7,43c-2.7,0-4.8,2.2-4.8,4.8c0,2.7,2.2,4.8,4.8,4.8c2.7,0,4.8-2.2,4.8-4.8C107.5,45.2,105.4,43,102.7,43z"/>
<path fill="#002776" d="M49.3,66.9c-5.9,0-10.6-4.8-10.6-10.6s4.8-10.6,10.6-10.6s10.6,4.8,10.6,10.6S55.1,66.9,49.3,66.9z
	 M49.3,51.9c-2.4,0-4.4,2-4.4,4.4c0,2.4,2,4.4,4.4,4.4c2.4,0,4.4-2,4.4-4.4C53.6,53.9,51.7,51.9,49.3,51.9z"/>
<path fill="#002776" d="M150.6,105.7l-10.9,1.4l-4-10h0l-9.3-24.6l15.6,5.2c1.5,0.5,3.1-0.3,3.6-1.8l0.4-1.3
	c0.5-1.5-0.3-3.1-1.8-3.6l-23.9-7.9c-2.3-0.8-4.4,1.5-3.5,3.7l10.7,28.1h-15.4l-10.7-27.2c-0.8-2-3.5-2.4-4.8-0.8L84.3,81.8l-17.4-8
	c-2.3-1.1-4.7,1.2-3.8,3.6l7.9,21.5H58.7l-9.4-23.1c-0.8-2-3.5-2.4-4.9-0.6L32.2,91c-1,1.2-0.7,3,0.5,4l1.1,0.8c1.2,1,3,0.7,4-0.5
	l7.7-10.1l7.4,18.2L43.8,131c-0.6,1.8,0.8,3.7,2.7,3.7h1.4c1.2,0,2.3-0.8,2.7-1.9l8.9-26.9h14.1l4.4,10.8l15.7-2.1
	c2.1-0.3,3.1-2.6,2-4.4l-0.8-1.2c-0.6-0.9-1.7-1.4-2.7-1.3l-9.7,1.3l-3.2-7.9l-6.2-16.7l11.2,5.2c1.2,0.5,2.6,0.2,3.4-0.8l9.7-11.8
	l9,22.9L96,131c-0.6,1.8,0.8,3.7,2.7,3.7h1.4c1.2,0,2.3-0.8,2.7-1.9l10.2-30.9h17l5.1,12.8l16.9-2.2c2.1-0.3,3.1-2.6,2-4.4l-0.8-1.2
	C152.7,106,151.7,105.5,150.6,105.7z"/>
</svg>
