<?xml version="1.0" encoding="utf-8"?>
<!-- Generator: Adobe Illustrator 18.0.0, SVG Export Plug-In . SVG Version: 6.00 Build 0)  -->
<!DOCTYPE svg PUBLIC "-//W3C//DTD SVG 1.1//EN" "http://www.w3.org/Graphics/SVG/1.1/DTD/svg11.dtd">
<svg version="1.1" id="Layer_4" xmlns="http://www.w3.org/2000/svg" xmlns:xlink="http://www.w3.org/1999/xlink" x="0px" y="0px"
	 width="180.4px" height="180.4px" viewBox="0 0 180.4 180.4" enable-background="new 0 0 180.4 180.4" xml:space="preserve">
<path fill="#002776" d="M90.2,140.2c-28.1,0-51-22.9-51-51s22.9-51,51-51s51,22.9,51,51S118.3,140.2,90.2,140.2z M90.2,45.2
	c-24.3,0-44,19.7-44,44s19.7,44,44,44s44-19.7,44-44S114.4,45.2,90.2,45.2z"/>
<rect x="-196.4" y="-230.3" fill="none" width="27" height="26"/>
<g>
	<circle fill="#002776" cx="90.3" cy="108.6" r="4.9"/>
	<path fill="#002776" d="M96.8,73.3c-0.4,3.3-3.5,19.4-4.5,24.7c-0.2,1-1,1.7-2,1.7h0c-1,0-1.9-0.7-2.1-1.7
		c-1-5.4-4.1-21.5-4.5-24.8c-0.5-3.9,2.6-7.4,6.5-7.4C94.1,65.8,97.2,69.3,96.8,73.3z"/>
</g>
</svg>
