<?xml version="1.0" encoding="utf-8"?>
<!-- Generator: Adobe Illustrator 18.1.1, SVG Export Plug-In . SVG Version: 6.00 Build 0)  -->
<svg version="1.1" id="Layer_2" xmlns="http://www.w3.org/2000/svg" xmlns:xlink="http://www.w3.org/1999/xlink" x="0px" y="0px"
	 viewBox="0 0 400 400" enable-background="new 0 0 400 400" xml:space="preserve">
<g>
	<g>
		<defs>
			<rect id="SVGID_3_" x="74.9" y="30.7" width="249.9" height="321.2"/>
		</defs>
		<clipPath id="SVGID_2_">
			<use xlink:href="#SVGID_3_"  overflow="visible"/>
		</clipPath>
		<g clip-path="url(#SVGID_2_)">
			<path fill="#002776" d="M142.2,257.3c-9.7,5.2-19.2,26.1-29.4,71.2c-2.7,12,6.4,23.5,18.7,23.5l19.7,0"/>
			<path fill="#002776" d="M151.1,352.8h-19.7c-6.1,0-11.8-2.7-15.7-7.5c-3.8-4.8-5.2-11-3.9-17c9.9-43.3,19.4-66.1,29.9-71.7
				c0.4-0.2,0.9-0.1,1.1,0.3c0.2,0.4,0.1,0.9-0.3,1.1c-9.9,5.3-19.4,28.4-29,70.6c-1.3,5.5,0,11.1,3.5,15.5
				c3.5,4.4,8.7,6.9,14.3,6.9h19.7c0.5,0,0.8,0.4,0.8,0.8S151.6,352.8,151.1,352.8z"/>
		</g>
		<g clip-path="url(#SVGID_2_)">
			<path fill="#002776" d="M258.3,257.3c9.7,5.2,19.2,26.1,29.4,71.2c2.7,12-6.4,23.5-18.7,23.5l-19.7,0"/>
			<path fill="#002776" d="M269.1,352.8h-19.7c-0.5,0-0.8-0.4-0.8-0.8s0.4-0.8,0.8-0.8h19.7c5.6,0,10.8-2.5,14.3-6.9
				c3.5-4.4,4.8-10.1,3.5-15.5c-9.6-42.2-19.1-65.3-29-70.6c-0.4-0.2-0.6-0.7-0.3-1.1c0.2-0.4,0.7-0.6,1.1-0.3
				c10.5,5.6,20,28.4,29.9,71.7c1.4,6,0,12.2-3.9,17C280.9,350,275.2,352.8,269.1,352.8z"/>
		</g>
		<g clip-path="url(#SVGID_2_)">
			<g>
				<g>
					<path fill="#99D2ED" d="M214,219.6c0,0-1.5,10.1,2.2,21.9l26.9,10.1l-3,1.6c-31.5,30.3-70.1,17.7-81.7-4.4l23-7.3
						c3.7-11.8,2.2-21.9,2.2-21.9"/>
					<path fill="#99D2ED" d="M198.9,272c-2.8,0-5.6-0.2-8.4-0.7c-14.4-2.3-27-10.8-32.9-22.1c-0.1-0.2-0.1-0.5,0-0.7
						c0.1-0.2,0.3-0.4,0.5-0.5l22.6-7.2c3.4-11.3,2-21,2-21.1c-0.1-0.5,0.3-0.9,0.7-1c0.5-0.1,0.9,0.2,1,0.7
						c0.1,0.4,1.5,10.5-2.2,22.3c-0.1,0.3-0.3,0.5-0.6,0.6l-22.1,7c5.9,10.4,17.7,18.2,31.2,20.4c17.1,2.8,34.3-3.3,48.7-17
						c0.1-0.1,0.1-0.1,0.2-0.1l1.4-0.7l-25.2-9.5c-0.2-0.1-0.4-0.3-0.5-0.5c-3.7-11.8-2.3-21.9-2.2-22.3c0.1-0.5,0.5-0.8,1-0.7
						c0.5,0.1,0.8,0.5,0.7,1c0,0.1-1.4,9.9,2,21.2l26.5,10c0.3,0.1,0.5,0.4,0.5,0.7c0,0.3-0.2,0.6-0.4,0.8l-2.9,1.6
						C228.2,265.8,213.7,272,198.9,272z"/>
				</g>
				<g>
					<path fill="#002776" d="M258,259.6c3.4,6.1-20.3-11.8-28.7-13.9c-14.5,11.9-38.5,16.9-58.6-1.6c-11.3,3.3-26.9,13.5-26.9,13.5
						c-0.4,23.4,0.6,59,6.4,84.4c4.7,20.4,2.7,41.7-5.5,61l-1.1,2.6c0,0,48.6,27.4,114.5,0.3l-0.2-0.3c-10-20.7-12.5-44.2-6.9-66.6
						C257.3,314,258.5,282.2,258,259.6z"/>
					<path fill="#002776" d="M199.6,418.7L199.6,418.7c-34,0-56.1-12.3-56.4-12.4c-0.4-0.2-0.5-0.7-0.4-1.1l1.1-2.6
						c8.2-19.2,10.1-40.1,5.5-60.4c-6.9-30-6.7-72.3-6.5-84.6c0-0.3,0.1-0.5,0.4-0.7c0.6-0.4,15.8-10.3,27.1-13.6
						c0.3-0.1,0.6,0,0.8,0.2c8.5,7.9,18.6,12,29.1,12c0,0,0,0,0,0c9.9,0,20.3-3.8,28.4-10.4c0.2-0.2,0.5-0.2,0.7-0.2
						c4,1,11.1,5.4,17.5,9.2c3.9,2.4,8.3,5,10.2,5.7l0-0.2c0-0.4,0.2-0.7,0.6-0.8c0.4-0.1,0.8,0.1,1,0.4c0.3,0.6,0.6,1.3,0.3,1.9
						c0,0.1-0.1,0.2-0.2,0.3c0.3,17.7-0.3,51-7,77.9c-5.5,22.1-3,45.5,6.9,66l0.2,0.3c0.1,0.2,0.1,0.5,0,0.7
						c-0.1,0.2-0.3,0.4-0.5,0.5C239.1,414.7,219.3,418.7,199.6,418.7z M144.8,405.2c3.9,2,24.6,11.8,54.8,11.8h0
						c19.2,0,38.5-3.9,57.4-11.5c-9.9-20.7-12.3-44.4-6.8-66.7c6.6-26.6,7.2-59.5,6.9-77.2c-1.9-0.5-5.4-2.6-11.1-6.1
						c-6-3.6-12.8-7.8-16.6-8.9c-8.4,6.7-18.9,10.5-29.1,10.5c0,0,0,0,0,0c-10.8,0-21.1-4.2-29.9-12.1c-10.1,3.1-23.4,11.5-25.8,13
						c-0.2,12.8-0.3,54.2,6.4,83.7c4.7,20.7,2.8,42-5.5,61.5L144.8,405.2z"/>
				</g>
				<g>
					<g>
						<path fill="#002776" d="M255.2,385.8v-0.1c11.3-2.5,12.5-22.9,16.9-58.2c3.2-25.2,1.3-44.6-4.9-57.6
							c-3.5-7.4-7.7-13.1-15.1-16.6l-9,108.2L255.2,385.8z"/>
						<path fill="#002776" d="M255.1,386.6c-0.3,0-0.6-0.1-0.7-0.4l-12.1-24.3c-0.1-0.1-0.1-0.3-0.1-0.4l9-108.2
							c0-0.3,0.2-0.5,0.4-0.7c0.2-0.1,0.5-0.2,0.8,0c6.7,3.1,11.4,8.2,15.5,17c6.4,13.5,8.1,33.1,5,58.1c-0.5,3.8-0.9,7.3-1.3,10.8
							c-3.5,29.2-5.5,45.4-15.9,48.1c-0.1,0.1-0.2,0.1-0.3,0.1C255.3,386.6,255.2,386.6,255.1,386.6z M243.9,361.4l11.6,23.3
							c9-2.7,11.1-19.3,14.4-46.5c0.4-3.4,0.8-7,1.3-10.8c3.1-24.3,1.4-44.1-4.8-57.2c-3.8-7.9-7.9-12.7-13.6-15.7L243.9,361.4z"/>
					</g>
				</g>
				<g>
					<g>
						<path fill="#002776" d="M144.6,386.4v-0.1c-11.3-2.5-12.5-22.9-16.9-58.2c-3.2-25.2-1.3-44.6,4.9-57.6
							c3.5-7.4,7.7-13.1,15.1-16.6l9,108.2L144.6,386.4z"/>
						<path fill="#002776" d="M144.6,387.3c-0.1,0-0.1,0-0.2,0c-0.2,0-0.3-0.1-0.4-0.2c-10.3-2.7-12.3-18.9-15.8-48
							c-0.4-3.4-0.8-7-1.3-10.8c-3.1-25-1.5-44.6,5-58.1c2.9-6.2,7.1-13.1,15.5-17c0.3-0.1,0.5-0.1,0.8,0s0.4,0.4,0.4,0.7l9,108.2
							c0,0.2,0,0.3-0.1,0.4l-12.1,24.3C145.2,387.1,144.9,387.3,144.6,387.3z M146.9,255.2c-5.7,3-9.9,7.7-13.6,15.7
							c-6.3,13.2-7.9,32.5-4.8,57.2c0.5,3.8,0.9,7.4,1.3,10.8c3.3,27.2,5.3,43.8,14.4,46.5l11.6-23.3L146.9,255.2z"/>
					</g>
				</g>
				<g>
					<path fill="#FF9100" d="M201.8,424.5c-28.5,19.4-62.4-10.1-62.4-10.1s-0.6-8,6.5-26.7c7.1-18.7,6.9-41.1,0.5-73.7
						c-6.4-32.5-4-59.8-4-59.8c10.1-5.6,31.6-14.4,31.6-14.4s12.1,44.6,30.1,78c15.5-37.1,23.5-77.8,23.5-77.8s20.9,8.6,31.1,14.2
						c0,0,2.3,27.3-4,59.8s-6.6,55,0.5,73.7c7.1,18.7,6.5,26.7,6.5,26.7S230.3,443.9,201.8,424.5z"/>
					<path fill="#FF9100" d="M223,432c-7.6,0-14.7-2.2-21.2-6.4c-6.5,4.3-13.7,6.4-21.6,6.4c-21.7,0-41.2-16.7-41.4-16.9
						c-0.2-0.1-0.3-0.4-0.3-0.6c0-0.3-0.5-8.4,6.5-27c6.8-18,7-39.9,0.5-73.2c-6.3-32.3-4.1-59.8-4-60.1c0-0.3,0.2-0.5,0.4-0.7
						c10.1-5.5,31.5-14.3,31.7-14.4c0.2-0.1,0.5-0.1,0.7,0c0.2,0.1,0.4,0.3,0.4,0.5c0.1,0.4,11.9,43.4,29.2,76.3
						c14.8-36.1,22.7-75.6,22.8-76c0-0.2,0.2-0.5,0.4-0.6c0.2-0.1,0.5-0.1,0.7,0c0.2,0.1,21.1,8.7,31.2,14.2
						c0.2,0.1,0.4,0.4,0.4,0.7c0,0.3,2.3,27.8-4,60.1c-6.5,33.3-6.4,55.2,0.5,73.2c7.1,18.7,6.6,26.7,6.5,27c0,0.2-0.1,0.4-0.3,0.6
						C262,415.3,244,432,223,432z M201.8,423.7c0.2,0,0.3,0,0.5,0.1c6.3,4.3,13.3,6.4,20.7,6.4c19,0,35.6-14.2,37.8-16.2
						c0-1.7-0.3-9.8-6.4-26c-7-18.4-7.1-40.5-0.6-74.2c5.8-29.8,4.3-55.5,4.1-59.1c-8.9-4.8-25.5-11.8-29.6-13.5
						c-1.4,6.5-9.3,43.4-23.4,77c-0.1,0.3-0.4,0.5-0.7,0.5c-0.3,0-0.6-0.2-0.8-0.4c-16.3-30.5-28-70.7-29.9-77.3
						c-4.1,1.7-21.3,8.9-30.3,13.7c-0.3,3.7-1.8,29.3,4.1,59.1c6.6,33.6,6.4,55.8-0.6,74.2c-6.1,16.1-6.4,24.3-6.4,26
						c2.4,2,20.3,16.2,40,16.2c7.7,0,14.8-2.2,21.1-6.4C201.5,423.7,201.6,423.7,201.8,423.7z"/>
				</g>
				<g>
					<path fill="#002776" d="M202.2,422.1c0,0-0.1,0-0.1,0c-0.5-0.1-0.8-0.5-0.7-1c4.6-34.7,7.3-60.5,2.3-99.7
						c-0.1-0.5,0.3-0.9,0.7-0.9c0.4-0.1,0.9,0.3,0.9,0.7c5,39.4,2.4,65.2-2.3,100.1C203,421.8,202.7,422.1,202.2,422.1z"/>
				</g>
				<g>
					<path fill="#CCE8F6" d="M215.8,355.1c-1.3,0-2.5-1-2.5-2.4c-0.1-1.4,1-2.6,2.4-2.7l29.1-1.6c1.4,0,2.6,1,2.7,2.4
						c0.1,1.4-1,2.6-2.4,2.7l-29.1,1.6C215.9,355.1,215.8,355.1,215.8,355.1z"/>
				</g>
				<g>
					<path fill="#CCE8F6" d="M214,392c-1.3,0-2.5-1-2.5-2.4c-0.1-1.4,1-2.6,2.4-2.7l35.4-1.9c1.4,0,2.6,1,2.7,2.4
						c0.1,1.4-1,2.6-2.4,2.7l-35.4,1.9C214.1,392,214.1,392,214,392z"/>
				</g>
				<g>
					<path fill="#FFFFFF" d="M227.9,354.4c-0.1,0-0.2,0-0.3,0c-1.4-0.2-2.4-1.4-2.2-2.8l12.4-101.7c0.2-1.4,1.4-2.4,2.8-2.2
						c1.4,0.2,2.4,1.4,2.2,2.8l-12.4,101.7C230.2,353.5,229.1,354.4,227.9,354.4z"/>
				</g>
				<g>
					<path fill="#CCE8F6" d="M191.5,355.1c0,0-0.1,0-0.1,0l-34.5-1.6c-1.4-0.1-2.5-1.3-2.4-2.7c0.1-1.4,1.2-2.4,2.7-2.4l34.5,1.6
						c1.4,0.1,2.5,1.3,2.4,2.7C194,354,192.9,355.1,191.5,355.1z"/>
				</g>
				<g>
					<path fill="#CCE8F6" d="M193.3,392c0,0-0.1,0-0.1,0l-40.9-1.9c-1.4-0.1-2.5-1.3-2.4-2.7c0.1-1.4,1.3-2.5,2.7-2.4l40.9,1.9
						c1.4,0.1,2.5,1.3,2.4,2.7C195.8,391,194.6,392,193.3,392z"/>
				</g>
				<g>
					<path fill="#FFFFFF" d="M179.9,353.5c-1.2,0-2.3-0.9-2.5-2.1l-17.2-100.7c-0.2-1.4,0.7-2.7,2.1-2.9c1.4-0.2,2.7,0.7,2.9,2.1
						l17.2,100.7c0.2,1.4-0.7,2.7-2.1,2.9C180.2,353.5,180.1,353.5,179.9,353.5z"/>
				</g>
			</g>
			<g>
				<g>
					<g>
						<path fill="#99D2ED" d="M156.1,170.7c-4.6-9.7-14.1-4.8-14.4,3.9s7.2,26.5,15.1,19.1"/>
						<path fill="#99D2ED" d="M152.9,196.3c-0.9,0-1.7-0.2-2.3-0.5c-5.9-2.7-9.9-14.7-9.7-21.2c0.2-4.9,3.2-9,7.1-9.8
							c3.5-0.7,6.8,1.4,8.9,5.6c0.2,0.4,0,0.9-0.4,1.1c-0.4,0.2-0.9,0-1.1-0.4c-1.7-3.6-4.3-5.3-7-4.7c-2.7,0.6-5.6,3.6-5.8,8.2
							c-0.2,5.9,3.7,17.3,8.7,19.6c1.7,0.8,3.3,0.4,4.9-1.2c0.3-0.3,0.9-0.3,1.2,0c0.3,0.3,0.3,0.9,0,1.2
							C155.8,195.8,154.2,196.3,152.9,196.3z"/>
					</g>
					<g>
						<path fill="#99D2ED" d="M243.6,170.7c4.6-9.7,14.1-4.8,14.4,3.9c0.3,8.6-7.2,26.5-15.1,19.1"/>
						<path fill="#99D2ED" d="M246.8,196.3c-1.3,0-2.8-0.5-4.4-2c-0.3-0.3-0.4-0.9,0-1.2c0.3-0.3,0.9-0.4,1.2,0
							c1.6,1.5,3.2,1.9,4.9,1.2c5-2.3,8.9-13.6,8.7-19.6c-0.2-4.7-3-7.7-5.8-8.2c-2.7-0.6-5.3,1.1-7,4.7c-0.2,0.4-0.7,0.6-1.1,0.4
							c-0.4-0.2-0.6-0.7-0.4-1.1c2-4.3,5.4-6.4,8.9-5.6c4,0.8,6.9,5,7.1,9.8c0.2,6.5-3.8,18.5-9.7,21.2
							C248.5,196,247.7,196.3,246.8,196.3z"/>
					</g>
					<g>
						<path fill="#99D2ED" d="M200.9,235.7H200c-24.3,0-44.2-19.3-44.9-43.6l-2-58.3l21.7-32.3l52.9-2.4l19.9,39.6l-1.8,53.5
							C245.1,216.3,225.2,235.7,200.9,235.7z"/>
						<path fill="#99D2ED" d="M200.9,236.5H200c-24.9,0-45-19.5-45.8-44.5l-2-58.3c0-0.2,0-0.4,0.1-0.5l21.7-32.3
							c0.1-0.2,0.4-0.4,0.7-0.4l52.9-2.4c0.3,0,0.6,0.2,0.8,0.5l19.9,39.6c0.1,0.1,0.1,0.3,0.1,0.4l-1.8,53.5
							C245.9,217,225.8,236.5,200.9,236.5z M153.9,133.9l1.9,58.1c0.7,24,20.1,42.8,44.1,42.8h0.9c24,0,43.4-18.8,44.1-42.8
							l1.8-53.3l-19.6-38.9l-51.9,2.4L153.9,133.9z"/>
					</g>
					<g>
						<polygon fill="#4CB0DF" points="202,189 202,189 192.4,195.7 211.3,195.7 						"/>
						<path fill="#4CB0DF" d="M211.3,196.5h-19c-0.4,0-0.7-0.2-0.8-0.6s0-0.7,0.3-0.9l9.6-6.7c0.3-0.2,0.7-0.2,1,0l9.4,6.7
							c0.3,0.2,0.4,0.6,0.3,0.9C212,196.3,211.7,196.5,211.3,196.5z M195.1,194.8h13.7L202,190L195.1,194.8z"/>
					</g>
					<g>
						<path fill="#008ED2" d="M182.5,185L182.5,185c2,0,3.6-1.6,3.6-3.6l0-15c0-2-1.6-3.5-3.6-3.5l-0.1,0c-2,0-3.5,1.6-3.5,3.6v15
							C178.9,183.5,180.5,185,182.5,185z"/>
					</g>
					<g>
						<path fill="#008ED2" d="M221.2,185L221.2,185c2,0,3.6-1.6,3.6-3.6l0-15c0-2-1.6-3.5-3.6-3.5l-0.1,0c-2,0-3.5,1.6-3.5,3.6v15
							C217.6,183.5,219.3,185,221.2,185z"/>
					</g>
					<g>
						<path fill="#005AA4" d="M203.3,214.2c-5.2,0-11.1-1.2-16.2-5.4c-0.4-0.3-0.4-0.8-0.1-1.2c0.3-0.4,0.8-0.4,1.2-0.1
							c11.6,9.3,27.5,2.7,27.6,2.7c0.4-0.2,0.9,0,1.1,0.4c0.2,0.4,0,0.9-0.4,1.1C216.3,211.8,210.6,214.2,203.3,214.2z"/>
					</g>
					<g>
						<path fill="#002776" d="M189.6,151.8c0,0-11.3-2.4-17.6,3.6C172,155.4,181.5,140.2,189.6,151.8z"/>
						<path fill="#002776" d="M172,156.2c-0.2,0-0.4-0.1-0.5-0.2c-0.3-0.3-0.4-0.7-0.2-1.1c0.2-0.3,5.3-8.4,11.5-8.4
							c2.8,0,5.3,1.6,7.5,4.7c0.2,0.3,0.2,0.7,0,0.9c-0.2,0.3-0.5,0.4-0.9,0.4c0,0-2.2-0.5-5.1-0.5c-3.5,0-8.4,0.7-11.7,3.8
							C172.4,156.2,172.2,156.2,172,156.2z M182.8,148.3c-2.6,0-5.1,1.8-6.9,3.7c4.4-1.8,9.1-1.6,11.7-1.3
							C186.1,149.1,184.5,148.3,182.8,148.3z"/>
					</g>
					<g>
						<path fill="#002776" d="M214.1,152.6c0,0,11.3-2.4,17.6,3.6C231.6,156.2,222.1,141,214.1,152.6z"/>
						<path fill="#002776" d="M231.6,157.1c-0.2,0-0.4-0.1-0.6-0.2c-3.3-3.2-8.2-3.8-11.7-3.8c-2.9,0-5.1,0.4-5.1,0.5
							c-0.3,0.1-0.7-0.1-0.9-0.4c-0.2-0.3-0.2-0.7,0-0.9c2.2-3.1,4.7-4.7,7.5-4.7c6.2,0,11.3,8,11.5,8.4c0.2,0.4,0.1,0.8-0.2,1.1
							C232,157,231.8,157.1,231.6,157.1z M219.3,151.3c2.5,0,5.6,0.3,8.5,1.5c-1.8-1.9-4.3-3.7-6.9-3.7c-1.7,0-3.3,0.8-4.8,2.4
							C216.9,151.4,218.1,151.3,219.3,151.3z"/>
					</g>
				</g>
				<g>
					<path fill="#002776" d="M245.6,173.8c0,0,2.2-53.9-18.9-59.5c0,0-21.5,17.2-52.5,0c-21.1,5.6-18.9,59.5-18.9,59.5l-3.3-8.4
						c0-26.8-1.3-42.1,8.9-57.4c6.6-9.9,21.7-15.8,36.2-16.3h6.6c14.5,0.5,29.6,6.5,36.2,16.3c10.2,15.3,8.9,30.6,8.9,57.4
						L245.6,173.8z"/>
					<path fill="#002776" d="M155.3,174.6c-0.3,0-0.7-0.2-0.8-0.5l-3.3-8.4c0-0.1-0.1-0.2-0.1-0.3c0-2.8,0-5.6,0-8.2
						c-0.1-22.3-0.2-35.8,9.1-49.7c6.3-9.4,21.1-16.2,36.8-16.7h6.6c15.8,0.6,30.6,7.3,36.9,16.7c9.3,13.9,9.2,27.4,9.1,49.7
						c0,2.6,0,5.3,0,8.2c0,0.1,0,0.2-0.1,0.3l-3.3,8.4c-0.1,0.4-0.6,0.6-1,0.5c-0.4-0.1-0.7-0.4-0.7-0.9c0-0.5,1.9-52.6-17.9-58.5
						c-1.9,1.4-11.1,7.5-25.3,7.5h0c-9.1,0-18.3-2.5-27.5-7.6c-19.9,5.8-18,58-17.9,58.5c0,0.4-0.3,0.8-0.7,0.9
						C155.4,174.6,155.4,174.6,155.3,174.6z M152.9,165.2l1.5,3.9c0-5.2,0.3-14,1.6-23.1c2.8-19.2,8.9-30.1,18-32.5
						c0.2-0.1,0.4,0,0.6,0.1c9,5,18.1,7.5,27,7.5h0c15.1,0,24.5-7.4,24.6-7.4c0.2-0.2,0.5-0.2,0.7-0.2c9.1,2.4,15.2,13.3,18,32.5
						c1.3,9,1.6,17.9,1.6,23.1l1.5-3.9c0-2.8,0-5.5,0-8c0.1-22,0.2-35.3-8.8-48.8c-6-9-20.3-15.4-35.5-16h-6.6
						c-15.2,0.5-29.5,7-35.5,16c-9,13.5-8.9,26.8-8.8,48.8C152.9,159.7,152.9,162.4,152.9,165.2z"/>
				</g>
				<g>
					<path fill="#008ED2" d="M216.1,80.3L216.1,80.3c-0.7-2-1.5-3.8-2.2-5c0,0-6.3-3.2-13.7-3.2c-7.4,0-13.7,3.2-13.7,3.2
						c-0.8,1.3-1.5,3-2.2,5h0c-13.3,1.3-35.2,12.3-36.8,52.4c-0.1,2.5,2,4.7,4.5,4.7h2.8c9.9,7,23,7.8,45.4,7.8s35.5-0.8,45.4-7.8
						h2.8c2.5,0,4.6-2.1,4.5-4.7C251.4,92.6,229.5,81.5,216.1,80.3z"/>
					<path fill="#008ED2" d="M200.2,146.1c-20.7,0-35.2-0.5-45.7-7.8h-2.5c-1.5,0-2.8-0.6-3.9-1.6c-1-1.1-1.5-2.4-1.5-3.9
						c1.4-36.4,20-51.3,37-53.2c0.7-2,1.4-3.6,2.1-4.7c0.1-0.1,0.2-0.2,0.3-0.3c0.3-0.1,6.6-3.3,14.1-3.3c7.5,0,13.9,3.1,14.1,3.3
						c0.1,0.1,0.3,0.2,0.3,0.3c0.7,1.2,1.4,2.7,2.1,4.7c17.1,1.9,35.6,16.8,37,53.2c0.1,1.5-0.5,2.8-1.5,3.9c-1,1.1-2.4,1.7-3.9,1.7
						h-2.5C235.3,145.5,220.9,146.1,200.2,146.1z M187,75.9c-0.6,1.1-1.3,2.7-2,4.7c-0.1,0.3-0.4,0.6-0.8,0.6
						c-16.4,1.6-34.6,15.9-36,51.6c0,1,0.3,1.9,1,2.7c0.7,0.7,1.6,1.1,2.6,1.1h2.8c0.2,0,0.3,0.1,0.5,0.2c9.3,6.6,21.4,7.7,45,7.7
						s35.6-1.1,45-7.7c0.1-0.1,0.3-0.2,0.5-0.2h2.8c1,0,1.9-0.4,2.7-1.1c0.7-0.7,1.1-1.7,1-2.7c-0.9-23.4-10.9-49.3-36-51.6
						c-0.3,0-0.6-0.3-0.7-0.6c-0.7-2-1.4-3.5-2-4.7c-1.2-0.5-6.8-3-13.1-3S188.2,75.4,187,75.9z"/>
				</g>
				<g>
					<path fill="#005AA4" d="M223,130c-0.5,0-0.8-0.4-0.8-0.8c0-14.6-2.5-33.7-5.8-45.5c-0.1-0.4,0.1-0.9,0.6-1
						c0.5-0.1,0.9,0.1,1,0.6c3.4,11.8,5.9,31.2,5.9,45.9C223.8,129.6,223.5,130,223,130z"/>
				</g>
				<g>
					<path fill="#005AA4" d="M177.3,130c-0.5,0-0.8-0.4-0.8-0.8c0-14.5,2.3-33,5.6-45.1c0.1-0.4,0.6-0.7,1-0.6
						c0.5,0.1,0.7,0.6,0.6,1c-3.3,11.9-5.6,30.3-5.6,44.6C178.2,129.6,177.8,130,177.3,130z"/>
				</g>
				<g>
					<path fill="#005AA4" d="M240.8,138.2h-82.2c-0.5,0-0.8-0.4-0.8-0.8c0-0.5,0.4-0.8,0.8-0.8h82.2c0.5,0,0.8,0.4,0.8,0.8
						C241.7,137.9,241.3,138.2,240.8,138.2z"/>
				</g>
			</g>
		</g>
	</g>
	<g>
		<path fill="#005AA4" d="M304.2,352.8H95.5c-0.5,0-0.8-0.4-0.8-0.8s0.4-0.8,0.8-0.8h208.7c0.5,0,0.8,0.4,0.8,0.8
			S304.7,352.8,304.2,352.8z"/>
	</g>
	<g>
		<g>
			<path fill="#66BBE4" d="M252.8,351.9H146.9c-0.9,0-1.6-0.7-1.6-1.6v-2.2c0-0.9,0.7-1.6,1.6-1.6h105.8c0.9,0,1.6,0.7,1.6,1.6v2.2
				C254.3,351.2,253.6,351.9,252.8,351.9z"/>
			<path fill="#66BBE4" d="M251.7,352.8H148c-1.9,0-3.5-1.6-3.5-3.5c0-1.9,1.6-3.5,3.5-3.5h103.7c1.9,0,3.5,1.6,3.5,3.5
				C255.2,351.2,253.6,352.8,251.7,352.8z M148,347.5c-1,0-1.8,0.8-1.8,1.8c0,1,0.8,1.8,1.8,1.8h103.7c1,0,1.8-0.8,1.8-1.8
				c0-1-0.8-1.8-1.8-1.8H148z"/>
		</g>
		<g>
			<g>
				<path fill="#99D2ED" d="M257,278.2H142.7c-2.7,0-4.8,2.4-4.5,5.1l6.8,60.6c0.3,2.3,2.2,4,4.5,4h100.7c2.3,0,4.3-1.7,4.5-4
					l6.8-60.6C261.9,280.6,259.7,278.2,257,278.2z"/>
				<path fill="#99D2ED" d="M250.2,348.8H149.5c-2.8,0-5.1-2.1-5.4-4.8l-6.8-60.6c-0.2-1.5,0.3-3.1,1.3-4.2c1-1.1,2.5-1.8,4-1.8H257
					c1.5,0,3,0.7,4,1.8c1,1.1,1.5,2.7,1.3,4.2l-6.8,60.6C255.3,346.7,253,348.8,250.2,348.8z M142.7,279c-1.1,0-2.1,0.5-2.8,1.2
					c-0.7,0.8-1,1.8-0.9,2.9l6.8,60.6c0.2,1.9,1.8,3.3,3.7,3.3h100.7c1.9,0,3.5-1.4,3.7-3.3l6.8-60.6c0.1-1-0.2-2.1-0.9-2.9
					c-0.7-0.8-1.7-1.2-2.8-1.2H142.7z"/>
			</g>
			<g>
				<circle fill="#FFFFFF" cx="199.9" cy="313.1" r="9.5"/>
			</g>
		</g>
	</g>
</g>
</svg>
