<?xml version="1.0" encoding="utf-8"?>
<!-- Generator: Adobe Illustrator 18.0.0, SVG Export Plug-In . SVG Version: 6.00 Build 0)  -->
<!DOCTYPE svg PUBLIC "-//W3C//DTD SVG 1.1//EN" "http://www.w3.org/Graphics/SVG/1.1/DTD/svg11.dtd">
<svg version="1.1" id="Layer_1" xmlns="http://www.w3.org/2000/svg" xmlns:xlink="http://www.w3.org/1999/xlink" x="0px" y="0px"
	 width="180.4px" height="180.4px" viewBox="0 0 180.4 180.4" enable-background="new 0 0 180.4 180.4" xml:space="preserve">
<path fill="#002776" d="M134.5,112.7H56.7l-10-27.4l97-7c4.5-0.3,7.6,4.5,5.4,8.4L134.5,112.7z M61.6,105.7h68.8l11.3-20.3
	l-85.3,6.2L61.6,105.7z"/>
<path fill="#002776" d="M65.5,91H38.2c-3.1,0-5.7-2.5-5.7-5.7v-9.9c0-4.7,3.8-8.5,8.5-8.5H57c4.7,0,8.5,3.8,8.5,8.5V91z M39.6,84
	h18.9v-8.6c0-0.8-0.7-1.5-1.5-1.5H41.1c-0.8,0-1.5,0.7-1.5,1.5V84z"/>
<path fill="#002776" d="M47.7,116.7h-7.9c-1.6,0-2.8-1.3-2.8-2.8V113c0-1.6,1.3-2.8,2.8-2.8h1.4V87.5h6.5V116.7z"/>
</svg>
