<?xml version="1.0" encoding="utf-8"?>
<!-- Generator: Adobe Illustrator 18.0.0, SVG Export Plug-In . SVG Version: 6.00 Build 0)  -->
<!DOCTYPE svg PUBLIC "-//W3C//DTD SVG 1.1//EN" "http://www.w3.org/Graphics/SVG/1.1/DTD/svg11.dtd">
<svg version="1.1" id="Layer_1" xmlns="http://www.w3.org/2000/svg" xmlns:xlink="http://www.w3.org/1999/xlink" x="0px" y="0px"
	 width="180.4px" height="180.4px" viewBox="0 0 180.4 180.4" enable-background="new 0 0 180.4 180.4" xml:space="preserve">
<path fill="#002776" d="M99,89.8l17.5-17.4c2.4-2.4,2.4-6.3,0-8.7c-1.2-1.2-2.8-1.8-4.4-1.8c-1.6,0-3.2,0.6-4.4,1.8L90.1,81.1
	L72.6,63.6c-2.4-2.4-6.3-2.4-8.7,0c-2.4,2.4-2.4,6.3,0,8.7l17.5,17.4l-17.5,17.4c-2.4,2.4-2.4,6.3,0,8.7c1.2,1.2,2.8,1.8,4.4,1.8
	c1.6,0,3.2-0.6,4.4-1.8l17.6-17.5l17.6,17.5c2.4,2.4,6.3,2.4,8.7,0c2.4-2.4,2.4-6.3,0-8.7L99,89.8z"/>
</svg>
