<?xml version="1.0" encoding="utf-8"?>
<!-- Generator: Adobe Illustrator 18.0.0, SVG Export Plug-In . SVG Version: 6.00 Build 0)  -->
<!DOCTYPE svg PUBLIC "-//W3C//DTD SVG 1.1//EN" "http://www.w3.org/Graphics/SVG/1.1/DTD/svg11.dtd">
<svg version="1.1" id="Layer_1" xmlns="http://www.w3.org/2000/svg" xmlns:xlink="http://www.w3.org/1999/xlink" x="0px" y="0px"
	 width="180.4px" height="180.4px" viewBox="0 0 180.4 180.4" enable-background="new 0 0 180.4 180.4" xml:space="preserve">
<path fill="#002776" d="M120.5,99.7c0,8.7-7.3,15.9-16.6,16.5c-1.5-3.3-5-5.4-9-4.8c-3.8,0.5-6.8,3.6-7.2,7.4
	c-0.6,5.1,3.4,9.5,8.4,9.5c3.5,0,6.4-2.1,7.8-5c10.3-0.5,18.9-6.9,22.2-15.7c9.5-0.1,17.1-7.9,17.1-17.4c0-9.4-7.5-17.1-16.9-17.4
	c-4.1-15.8-18.5-27.6-35.6-27.6c-17.1,0-31.5,11.7-35.6,27.6c-9.4,0.3-16.9,7.9-16.9,17.4c0,9,6.9,16.5,15.7,17.3l4.1,0
	c1.6,0,2.9-1.3,2.9-2.8v-22c0-16.2,12.7-29.9,28.9-30.4c16.8-0.5,30.7,13.1,30.7,29.8V99.7z M127.5,99.7V82.1c0-0.7,0-1.4-0.1-2.1
	c5,0.8,8.8,5.1,8.8,10.2c0,5.2-3.8,9.4-8.7,10.2C127.5,100.2,127.5,100,127.5,99.7z M53.9,82.1v18.4c-4.9-0.8-8.7-5.1-8.7-10.2
	c0-5.2,3.8-9.5,8.8-10.2C53.9,80.7,53.9,81.4,53.9,82.1z"/>
</svg>
