<?xml version="1.0" encoding="utf-8"?>
<!-- Generator: Adobe Illustrator 18.0.0, SVG Export Plug-In . SVG Version: 6.00 Build 0)  -->
<!DOCTYPE svg PUBLIC "-//W3C//DTD SVG 1.1//EN" "http://www.w3.org/Graphics/SVG/1.1/DTD/svg11.dtd">
<svg version="1.1" id="Layer_1" xmlns="http://www.w3.org/2000/svg" xmlns:xlink="http://www.w3.org/1999/xlink" x="0px" y="0px"
	 width="180.4px" height="180.4px" viewBox="0 0 180.4 180.4" enable-background="new 0 0 180.4 180.4" xml:space="preserve">
<g>
	<path fill="#002776" d="M122.4,62.5c-10.4,0-19,7.5-20.9,17.3H43.3c-1.6,0-2.8,1.3-2.8,2.8v2.3c0,1.6,1.3,2.8,2.8,2.8h58.2
		c1.9,9.8,10.5,17.3,20.9,17.3c11.7,0,21.3-9.5,21.3-21.3C143.7,72,134.1,62.5,122.4,62.5z M122.4,97.5c-7.6,0-13.8-6.2-13.8-13.8
		c0-7.6,6.2-13.8,13.8-13.8c7.6,0,13.8,6.2,13.8,13.8C136.2,91.4,130,97.5,122.4,97.5z"/>
	<path fill="#002776" d="M66.1,95.5H43.3c-1.6,0-2.8,1.3-2.8,2.8v2.3c0,1.6,1.3,2.8,2.8,2.8h22.8c1.6,0,2.8-1.3,2.8-2.8v-2.3
		C69,96.7,67.7,95.5,66.1,95.5z"/>
</g>
</svg>
