<?xml version="1.0" encoding="utf-8"?>
<!-- Generator: Adobe Illustrator 18.0.0, SVG Export Plug-In . SVG Version: 6.00 Build 0)  -->
<!DOCTYPE svg PUBLIC "-//W3C//DTD SVG 1.1//EN" "http://www.w3.org/Graphics/SVG/1.1/DTD/svg11.dtd">
<svg version="1.1" id="Layer_1" xmlns="http://www.w3.org/2000/svg" xmlns:xlink="http://www.w3.org/1999/xlink" x="0px" y="0px"
	 width="180.4px" height="180.4px" viewBox="0 0 180.4 180.4" enable-background="new 0 0 180.4 180.4" xml:space="preserve">
<path fill="#002776" d="M115.5,37.6H64.9c-3.1,0-5.7,2.5-5.7,5.7v81.1c0,3.1,2.5,5.7,5.7,5.7h50.7c3.1,0,5.7-2.5,5.7-5.7V43.3
	C121.2,40.2,118.6,37.6,115.5,37.6z M94.2,122.2c0,1.2-1,2.1-2.1,2.1h-3.8c-1.2,0-2.1-1-2.1-2.1v-3.8c0-1.2,1-2.1,2.1-2.1h3.8
	c1.2,0,2.1,1,2.1,2.1V122.2z M114.7,108.9c0,1.6-1.3,2.8-2.8,2.8H68.5c-1.6,0-2.8-1.3-2.8-2.8V47c0-1.6,1.3-2.8,2.8-2.8h43.3
	c1.6,0,2.8,1.3,2.8,2.8V108.9z"/>
</svg>
