<?xml version="1.0" encoding="utf-8"?>
<!-- Generator: Adobe Illustrator 18.0.0, SVG Export Plug-In . SVG Version: 6.00 Build 0)  -->
<!DOCTYPE svg PUBLIC "-//W3C//DTD SVG 1.1//EN" "http://www.w3.org/Graphics/SVG/1.1/DTD/svg11.dtd">
<svg version="1.1" id="Layer_1" xmlns="http://www.w3.org/2000/svg" xmlns:xlink="http://www.w3.org/1999/xlink" x="0px" y="0px"
	 width="180.4px" height="180.4px" viewBox="0 0 180.4 180.4" enable-background="new 0 0 180.4 180.4" xml:space="preserve">
<g>
	<path fill="#fff" d="M75.2,70.5c0,2.3-1.9,4.2-4.2,4.2l0,0c-2.3,0-4.2-1.9-4.2-4.2V53.2c0-2.3,1.9-4.2,4.2-4.2l0,0
		c2.3,0,4.2,1.9,4.2,4.2V70.5z"/>
	<path fill="#fff" d="M126.9,61.9h-8.7v8.6H118c-0.5,4.7-4.6,8.4-9.4,8.4c-4.9,0-8.9-3.7-9.4-8.4h-0.1v-8.6H80.5v8.6h-0.1
		c-0.5,4.7-4.6,8.4-9.4,8.4s-8.9-3.7-9.4-8.4h-0.1v-8.6h-8.7c-2.4,0-4.4,2-4.4,4.4V127c0,2.4,2,4.4,4.4,4.4h74.2
		c2.4,0,4.4-2,4.4-4.4V66.3C131.2,63.9,129.3,61.9,126.9,61.9z M125.1,121.9c0,1.5-1.2,2.7-2.7,2.7H57.1c-1.5,0-2.7-1.2-2.7-2.7V92
		c0-0.4,0.4-0.8,0.8-0.8h69.1c0.4,0,0.8,0.4,0.8,0.8V121.9z"/>
	<path fill="#fff" d="M112.8,70.5c0,2.3-1.9,4.2-4.2,4.2l0,0c-2.3,0-4.2-1.9-4.2-4.2V53.2c0-2.3,1.9-4.2,4.2-4.2l0,0
		c2.3,0,4.2,1.9,4.2,4.2V70.5z"/>
</g>
</svg>
