<?xml version="1.0" encoding="utf-8"?>
<!-- Generator: Adobe Illustrator 18.0.0, SVG Export Plug-In . SVG Version: 6.00 Build 0)  -->
<!DOCTYPE svg PUBLIC "-//W3C//DTD SVG 1.1//EN" "http://www.w3.org/Graphics/SVG/1.1/DTD/svg11.dtd">
<svg version="1.1" id="Layer_1" xmlns="http://www.w3.org/2000/svg" xmlns:xlink="http://www.w3.org/1999/xlink" x="0px" y="0px"
	 width="180.4px" height="180.4px" viewBox="0 0 180.4 180.4" enable-background="new 0 0 180.4 180.4" xml:space="preserve">
<path fill="#fff" d="M78.8,132.9c0.2,2-1.6,3.6-3.5,3.1l-0.9-0.2c-8.2-2-23.7-10.9-23.7-30.6c0-12.5,7.9-20,14.8-26.7
	c6.6-6.4,12.9-12.4,12.9-22.3c0-6-4.8-12.8-6.6-14.9l-1.8-2.1c-2-2.2,0.4-5.6,3.2-4.5l2.6,1c0.3,0.1,6.8,2.7,15.2,6.9
	c25.8,12.6,38.8,30,38.8,51.6c0,18.1-9.4,28.6-21.2,39.1c-1.1,1-2.8,1-3.9-0.1l-1.4-1.3c-1-1-1.1-2.5-0.4-3.7c6-9.1,5.8-20.4,4-25.8
	c-1.4-4.3-3.9-8.2-7.5-11.8c0,3.3-0.4,7.2-1.7,10.8c-1.7,4.6-5.3,9.3-10.6,14c-9.2,8.1-8.5,16.4-8.5,16.5L78.8,132.9z M83.2,46.7
	c1.2,2.9,2.1,6.1,2.1,9.4c0,12.8-8,20.5-15,27.3c-6.8,6.5-12.6,12.2-12.6,21.7c0,13.6,9,19.8,14.3,22.3c0.8-4.4,3.3-11,10.5-17.3
	c4.5-4,7.4-7.7,8.7-11.2c2.5-6.9,0.5-15.4,0.5-15.5l-0.4-1.5c-0.6-2.4,2-4.4,4.1-3.2l1.4,0.8c0.1,0.1,3.4,2,7.2,5.6
	c4.6,4.5,7.9,9.5,9.6,15c1.5,4.7,1.9,10.7,0.9,17c5-6.3,8.2-13.5,8.2-23.1c0-18.7-11.7-33.9-34.9-45.3
	C86.2,48.1,84.6,47.4,83.2,46.7z"/>
</svg>
