<?xml version="1.0" encoding="utf-8"?>
<!-- Generator: Adobe Illustrator 18.0.0, SVG Export Plug-In . SVG Version: 6.00 Build 0)  -->
<!DOCTYPE svg PUBLIC "-//W3C//DTD SVG 1.1//EN" "http://www.w3.org/Graphics/SVG/1.1/DTD/svg11.dtd">
<svg version="1.1" id="Layer_1" xmlns="http://www.w3.org/2000/svg" xmlns:xlink="http://www.w3.org/1999/xlink" x="0px" y="0px"
	 width="180.4px" height="180.4px" viewBox="0 0 180.4 180.4" enable-background="new 0 0 180.4 180.4" xml:space="preserve">
<g>
	<path fill="#fff" d="M82.6,110.4v-2.8c0-18.4,21-20.6,21-36.5c0-7.7-6.5-13.8-15.7-13.8c-5.3,0-9.7,2-12.1,3.5
		c-1.6,0.8-3.1,0.8-4.1-0.7l-1-1.4c-1.2-1.6-1.1-3,0.6-4.1c2.9-1.9,9-5,16.9-5c13.7,0,24,8.8,24,21.2c0,19.6-21,21.6-21.5,37.2
		l-0.1,2.9c-0.1,1.7-1,2.5-2.8,2.5h-2.3C83.7,113.4,82.6,112.3,82.6,110.4z M82,129c0-1.9,1-3,2.9-3h3.6c1.9,0,2.9,1.1,2.9,3v3.5
		c0,1.9-1,3-2.9,3h-3.6c-1.9,0-2.9-1.1-2.9-3V129z"/>
</g>
</svg>
