<?xml version="1.0" encoding="utf-8"?>
<!-- Generator: Adobe Illustrator 18.0.0, SVG Export Plug-In . SVG Version: 6.00 Build 0)  -->
<!DOCTYPE svg PUBLIC "-//W3C//DTD SVG 1.1//EN" "http://www.w3.org/Graphics/SVG/1.1/DTD/svg11.dtd">
<svg version="1.1" id="Layer_1" xmlns="http://www.w3.org/2000/svg" xmlns:xlink="http://www.w3.org/1999/xlink" x="0px" y="0px"
	 width="180.4px" height="180.4px" viewBox="0 0 180.4 180.4" enable-background="new 0 0 180.4 180.4" xml:space="preserve">
<g>
	<path fill="#002776" d="M114.2,75.7c-0.7,7.3-3.2,11-6.1,14.8l-0.4,0.5c-1.4,1.8-2.5,3.2-2.5,6.2v7h-6.5v-7c0-5.3,2.3-8.2,4-10.3
		l0.4-0.4c2.4-3.1,4.2-5.8,4.7-11.4c0.2-1.6,0.4-7.2-3.6-11.5c-3.1-3.3-7.7-5-13.9-5c-6.2,0-10.9,1.7-13.9,5
		c-4,4.4-3.8,9.9-3.6,11.5c0.5,5.6,2.3,8.3,4.7,11.4l0.4,0.6c1.7,2.1,3.9,4.9,3.9,10.1v7h-6.5v-7c0-2.9-1.1-4.3-2.4-6.1l-0.5-0.7
		c-2.9-3.7-5.4-7.5-6.1-14.8c-0.6-6.1,1.4-12.2,5.3-16.5c3-3.3,8.6-7.1,18.7-7.1s15.8,3.9,18.7,7.1
		C112.7,63.4,114.7,69.6,114.2,75.7z M75.1,109.4h30v6.5h-30V109.4z M86.9,104.2V84.7l-7.3-7.3l4.6-4.6l6,6l6-6l4.6,4.6l-7.3,7.3
		v19.5H86.9z M81.6,121.2h17v6.5h-17V121.2z"/>
</g>
</svg>
