<?xml version="1.0" encoding="utf-8"?>
<!-- Generator: Adobe Illustrator 18.0.0, SVG Export Plug-In . SVG Version: 6.00 Build 0)  -->
<!DOCTYPE svg PUBLIC "-//W3C//DTD SVG 1.1//EN" "http://www.w3.org/Graphics/SVG/1.1/DTD/svg11.dtd">
<svg version="1.1" xmlns="http://www.w3.org/2000/svg" xmlns:xlink="http://www.w3.org/1999/xlink" x="0px" y="0px" width="180.4px"
	 height="180.4px" viewBox="0 0 180.4 180.4" enable-background="new 0 0 180.4 180.4" xml:space="preserve">
<g id="Layer_2">
</g>
<g id="Layer_1">
	<g>
		<path fill="#002776" d="M92.9,133.4c-1.7,1-3.8,1-5.5,0C83.5,131.2,76.1,127,71,123c-8.6-6.6-18.8-16.9-18.8-28.4V57.5
			c0-3.1,2.5-5.7,5.7-5.7h64.7c3.1,0,5.7,2.5,5.7,5.7v37.1c0,11.5-10.2,21.8-18.8,28.4C104.2,127,96.9,131.2,92.9,133.4z M59.2,58.9
			v35.8c0,6.7,5.7,14.8,16.1,22.8c5.8,4.5,11.6,7.8,14.9,9.6c3.3-1.8,9.1-5.1,14.9-9.6c10.4-8,16.1-16.1,16.1-22.8V58.9H59.2z"/>
		
			<rect x="81.8" y="44.4" transform="matrix(0.7071 0.7071 -0.7071 0.7071 82.7517 -36.3702)" fill="#002776" width="7" height="74.5"/>
		
			<rect x="94.8" y="57.5" transform="matrix(0.7071 0.7071 -0.7071 0.7071 95.8087 -41.7796)" fill="#002776" width="7" height="74.5"/>
	</g>
</g>
</svg>
