<?xml version="1.0" encoding="utf-8"?>
<!-- Generator: Adobe Illustrator 18.0.0, SVG Export Plug-In . SVG Version: 6.00 Build 0)  -->
<!DOCTYPE svg PUBLIC "-//W3C//DTD SVG 1.1//EN" "http://www.w3.org/Graphics/SVG/1.1/DTD/svg11.dtd">
<svg version="1.1" id="Layer_1" xmlns:sketch="http://www.bohemiancoding.com/sketch/ns"
	 xmlns="http://www.w3.org/2000/svg" xmlns:xlink="http://www.w3.org/1999/xlink" x="0px" y="0px" viewBox="200 0 560 560"
	 enable-background="new 200 0 560 560" xml:space="preserve">
<rect x="246.7" y="40.4" fill="#FFFFFF" width="466.7" height="476"/>
<title>check disabled</title>
<desc>Created with Sketch.</desc>
<g id="Page-1" sketch:type="MSPage">
	<g id="Forms" transform="translate(-1495.000000, -879.000000)" sketch:type="MSArtboardGroup">
		<g id="check-disabled" transform="translate(1495.000000, 879.000000)" sketch:type="MSLayerGroup">
			<path id="Shape" sketch:type="MSShapeGroup" fill="#D8D8D8" d="M697.8,62.2v435.6H262.2V62.2H697.8L697.8,62.2z M697.8,0H262.2
				C228,0,200,28,200,62.2v435.6c0,34.2,28,62.2,62.2,62.2h435.6c34.2,0,62.2-28,62.2-62.2V62.2C760,28,732,0,697.8,0L697.8,0
				L697.8,0z"/>
		</g>
	</g>
</g>
<path fill="#D8D8D8" d="M631.3,171.4c-5-5-11.5-7.5-18-7.5c-6.5,0-13,2.5-18,7.4l-72.6,72.4l-36.5,35.6l-53.6,53.5L402.2,300
	l-36.5-35.6l-2.4-2.2c-5-5-11.5-7.4-18-7.4c-6.5,0-13.1,2.5-18,7.5c-9.9,10-9.9,26.1,0.1,36.1l86.3,89.1c5,5,11.5,7.4,18,7.4
	c0.1,0,0.2,0,0.2,0c0.1,0,0.2,0,0.2,0c6.5,0,13-2.5,18-7.4l72.6-72.4l36.5-35.6l72.1-71.9C641.2,197.5,641.3,181.4,631.3,171.4z"/>
</svg>
