<svg id="Capa_1" enable-background="new 0 0 511.998 511.998" viewBox="0 0 511.998 511.998" xmlns="http://www.w3.org/2000/svg">
<path fill="#fff" d="m484.455 27.543c-34.865-34.866-74.549-26.863-76.222-26.506l-4.334.927-378.883 378.884-25.016 131.15 131.15-25.016 378.883-378.883.928-4.334c.357-1.673 8.361-41.354-26.506-76.222zm-381.896 403.109 270.498-270.498 21.248 21.248-270.499 270.497zm-42.46-42.46 270.498-270.498 21.247 21.247-270.498 270.498zm291.711-291.711 21.247-21.247 63.708 63.707-21.247 21.247zm-303.498 322.349 44.856 44.856-55.428 10.573zm433.693-325.129-24.027 24.027-63.708-63.707 24.018-24.018c7.952-.361 27.14.94 44.954 18.753 17.871 17.871 19.164 36.885 18.763 44.945z"/>
</svg>